%TF.GenerationSoftware,KiCad,Pcbnew,10.0.0*%
%TF.CreationDate,2026-05-05T23:31:14-05:00*%
%TF.ProjectId,Project_02,50726f6a-6563-4745-9f30-322e6b696361,1*%
%TF.SameCoordinates,Original*%
%TF.FileFunction,Copper,L4,Bot*%
%TF.FilePolarity,Positive*%
%FSLAX46Y46*%
G04 Gerber Fmt 4.6, Leading zero omitted, Abs format (unit mm)*
G04 Created by KiCad (PCBNEW 10.0.0) date 2026-05-05 23:31:14*
%MOMM*%
%LPD*%
G01*
G04 APERTURE LIST*
G04 Aperture macros list*
%AMRoundRect*
0 Rectangle with rounded corners*
0 $1 Rounding radius*
0 $2 $3 $4 $5 $6 $7 $8 $9 X,Y pos of 4 corners*
0 Add a 4 corners polygon primitive as box body*
4,1,4,$2,$3,$4,$5,$6,$7,$8,$9,$2,$3,0*
0 Add four circle primitives for the rounded corners*
1,1,$1+$1,$2,$3*
1,1,$1+$1,$4,$5*
1,1,$1+$1,$6,$7*
1,1,$1+$1,$8,$9*
0 Add four rect primitives between the rounded corners*
20,1,$1+$1,$2,$3,$4,$5,0*
20,1,$1+$1,$4,$5,$6,$7,0*
20,1,$1+$1,$6,$7,$8,$9,0*
20,1,$1+$1,$8,$9,$2,$3,0*%
G04 Aperture macros list end*
%TA.AperFunction,ComponentPad*%
%ADD10C,2.000000*%
%TD*%
%TA.AperFunction,ComponentPad*%
%ADD11R,1.676400X1.676400*%
%TD*%
%TA.AperFunction,ComponentPad*%
%ADD12C,1.676400*%
%TD*%
%TA.AperFunction,ComponentPad*%
%ADD13C,3.600000*%
%TD*%
%TA.AperFunction,SMDPad,CuDef*%
%ADD14RoundRect,0.250000X-0.300000X1.000000X-0.300000X-1.000000X0.300000X-1.000000X0.300000X1.000000X0*%
%TD*%
%TA.AperFunction,ComponentPad*%
%ADD15O,1.900000X3.500000*%
%TD*%
%TA.AperFunction,ComponentPad*%
%ADD16R,1.700000X1.700000*%
%TD*%
%TA.AperFunction,ComponentPad*%
%ADD17O,1.700000X1.700000*%
%TD*%
%TA.AperFunction,ComponentPad*%
%ADD18C,1.700000*%
%TD*%
%TA.AperFunction,ViaPad*%
%ADD19C,0.609600*%
%TD*%
%TA.AperFunction,Conductor*%
%ADD20C,0.254000*%
%TD*%
G04 APERTURE END LIST*
D10*
%TO.P,SW2,1,1_1*%
%TO.N,GND*%
X60500000Y-111500000D03*
X67000000Y-111500000D03*
%TO.P,SW2,2,2_2*%
%TO.N,Net-(U1-GPIO23)*%
X60500000Y-116000000D03*
X67000000Y-116000000D03*
%TD*%
%TO.P,SW1,1,1_1*%
%TO.N,GND*%
X73000000Y-111500000D03*
X79500000Y-111500000D03*
%TO.P,SW1,2,2_2*%
%TO.N,Net-(U1-GPIO20)*%
X73000000Y-116000000D03*
X79500000Y-116000000D03*
%TD*%
D11*
%TO.P,D8,1,GND_1*%
%TO.N,GND*%
X35750000Y-84455000D03*
D12*
%TO.P,D8,2,3-5V_2*%
%TO.N,+3V3*%
X35750000Y-81915000D03*
%TO.P,D8,3,3.3V_out_3*%
%TO.N,unconnected-(D8-3.3V_out-Pad3)*%
X35750000Y-79375000D03*
%TO.P,D8,4,CLK_4*%
%TO.N,/SPIO_SCLK*%
X35750000Y-76835000D03*
%TO.P,D8,5,MISO_5*%
%TO.N,/SPIO_MISO*%
X35750000Y-74295000D03*
%TO.P,D8,6,MOSI_6*%
%TO.N,/SPIO_MOSI*%
X35750000Y-71755000D03*
%TO.P,D8,7,CS_7*%
%TO.N,/TFT_CS*%
X35750000Y-69215000D03*
%TO.P,D8,8,D/C_8*%
%TO.N,/TFT_DC*%
X35750000Y-66675000D03*
%TO.P,D8,9,RST_9*%
%TO.N,/TFT_RST*%
X35750000Y-64135000D03*
%TO.P,D8,10*%
%TO.N,N/C*%
X35750000Y-61595000D03*
%TO.P,D8,11*%
X35750000Y-59055000D03*
%TO.P,D8,12*%
X35750000Y-56515000D03*
%TO.P,D8,13*%
X35750000Y-53975000D03*
%TO.P,D8,14*%
X35750000Y-51435000D03*
X36180000Y-51757000D03*
%TO.P,D8,15*%
X35750000Y-48895000D03*
%TO.P,D8,16*%
X35750000Y-46355000D03*
%TO.P,D8,17*%
X35750000Y-43815000D03*
%TO.P,D8,18*%
X35750000Y-41275000D03*
%TO.P,D8,19*%
X35750000Y-38735000D03*
%TO.P,D8,20*%
X35750000Y-36195000D03*
D13*
%TO.P,D8,P$1*%
X111950000Y-31750000D03*
X35750000Y-31750000D03*
X111950000Y-88900000D03*
X35750000Y-88900000D03*
%TD*%
D14*
%TO.P,J1,1,VBUS_1*%
%TO.N,+5V*%
X129550000Y-31500000D03*
%TO.P,J1,2,D-_2*%
%TO.N,Net-(J1-D-)*%
X132050000Y-31500000D03*
%TO.P,J1,3,D+_3*%
%TO.N,Net-(J1-D+)*%
X134050000Y-31500000D03*
%TO.P,J1,4,GND_4*%
%TO.N,GND*%
X136550000Y-31500000D03*
D15*
%TO.P,J1,SH,Shield_SH*%
X138750000Y-34250000D03*
X127350000Y-34250000D03*
%TD*%
D16*
%TO.P,U1,1,VIN_1*%
%TO.N,unconnected-(U1-VIN-Pad1)*%
X147440000Y-36000000D03*
D17*
%TO.P,U1,2,AIN6/GPIO87_2*%
%TO.N,unconnected-(U1-AIN6{slash}GPIO87-Pad2)*%
X144900000Y-36000000D03*
%TO.P,U1,3,USB1.DRVVBUS_3*%
%TO.N,unconnected-(U1-USB1.DRVVBUS-Pad3)*%
X147440000Y-38540000D03*
%TO.P,U1,4,GPIO89_4*%
%TO.N,unconnected-(U1-GPIO89-Pad4)*%
X144900000Y-38540000D03*
%TO.P,U1,5,USB1.VBUS_5*%
%TO.N,+5V*%
X147440000Y-41080000D03*
%TO.P,U1,6,SPI0.CS_6*%
%TO.N,/TFT_CS*%
X144900000Y-41080000D03*
%TO.P,U1,7,USB1.VIN_7*%
%TO.N,unconnected-(U1-USB1.VIN-Pad7)*%
X147440000Y-43620000D03*
%TO.P,U1,8,SPI0.CLK_8*%
%TO.N,/SPIO_SCLK*%
X144900000Y-43620000D03*
%TO.P,U1,9,USB1.D-_9*%
%TO.N,Net-(J1-D-)*%
X147440000Y-46160000D03*
%TO.P,U1,10,SPI0.MISO_10*%
%TO.N,/SPIO_MOSI*%
X144900000Y-46160000D03*
%TO.P,U1,11,USB1.D+_11*%
%TO.N,Net-(J1-D+)*%
X147440000Y-48700000D03*
%TO.P,U1,12,SPI0.MOSI_12*%
%TO.N,/SPIO_MOSO*%
X144900000Y-48700000D03*
%TO.P,U1,13,USB1.ID_13*%
%TO.N,unconnected-(U1-USB1.ID-Pad13)*%
X147440000Y-51240000D03*
%TO.P,U1,14,3.3V_14*%
%TO.N,+3V3*%
X144900000Y-51240000D03*
%TO.P,U1,15,GND_15*%
%TO.N,GND*%
X147440000Y-53780000D03*
%TO.P,U1,16,GND_16*%
X144900000Y-53780000D03*
%TO.P,U1,17,AIN.VREF-_17*%
%TO.N,unconnected-(U1-AIN.VREF--Pad17)*%
X147440000Y-56320000D03*
%TO.P,U1,18,AIN.VREF+_18*%
%TO.N,unconnected-(U1-AIN.VREF+-Pad18)*%
X144900000Y-56320000D03*
%TO.P,U1,19,AIN0(1.8V)_19*%
%TO.N,Net-(U1-AIN0(1.8V))*%
X147440000Y-58860000D03*
%TO.P,U1,20,GPIO20_20*%
%TO.N,Net-(U1-GPIO20)*%
X144900000Y-58860000D03*
%TO.P,U1,21,AIN1(1.8V)_21*%
%TO.N,Net-(U1-AIN1(1.8V))*%
X147440000Y-61400000D03*
%TO.P,U1,22,GND_22*%
%TO.N,GND*%
X144900000Y-61400000D03*
%TO.P,U1,23,AIN2(1.8V)_23*%
%TO.N,unconnected-(U1-AIN2(1.8V)-Pad23)*%
X147440000Y-63940000D03*
%TO.P,U1,24,VOUT_24*%
%TO.N,unconnected-(U1-VOUT-Pad24)*%
X144900000Y-63940000D03*
%TO.P,U1,25,AIN3(1.8V)_25*%
%TO.N,unconnected-(U1-AIN3(1.8V)-Pad25)*%
X147440000Y-66480000D03*
%TO.P,U1,26,I2C2.SDA_26*%
%TO.N,unconnected-(U1-I2C2.SDA-Pad26)*%
X144900000Y-66480000D03*
%TO.P,U1,27,AIN4(1.8V)_27*%
%TO.N,unconnected-(U1-AIN4(1.8V)-Pad27)*%
X147440000Y-69020000D03*
%TO.P,U1,28,I2C2.SCL_28*%
%TO.N,unconnected-(U1-I2C2.SCL-Pad28)*%
X144900000Y-69020000D03*
%TO.P,U1,29,PRU0.7_29*%
%TO.N,unconnected-(U1-PRU0.7-Pad29)*%
X147440000Y-71560000D03*
%TO.P,U1,30,UART0.TX_30*%
%TO.N,unconnected-(U1-UART0.TX-Pad30)*%
X144900000Y-71560000D03*
%TO.P,U1,31,PRU0.4_31*%
%TO.N,unconnected-(U1-PRU0.4-Pad31)*%
X147440000Y-74100000D03*
%TO.P,U1,32,UART0.RX_32*%
%TO.N,unconnected-(U1-UART0.RX-Pad32)*%
X144900000Y-74100000D03*
%TO.P,U1,33,PRU0.1_33*%
%TO.N,unconnected-(U1-PRU0.1-Pad33)*%
X147440000Y-76640000D03*
%TO.P,U1,34,GPIO26_34*%
%TO.N,Net-(U1-GPIO26)*%
X144900000Y-76640000D03*
%TO.P,U1,35,PRU1.10_35*%
%TO.N,unconnected-(U1-PRU1.10-Pad35)*%
X147440000Y-79180000D03*
%TO.P,U1,36,PWM0A_36*%
%TO.N,unconnected-(U1-PWM0A-Pad36)*%
X144900000Y-79180000D03*
D18*
%TO.P,U1,37,PWM1A_37*%
%TO.N,unconnected-(U1-PWM1A-Pad37)*%
X122040000Y-36000000D03*
D17*
%TO.P,U1,38,GPIO59_38*%
%TO.N,unconnected-(U1-GPIO59-Pad38)*%
X119500000Y-36000000D03*
%TO.P,U1,39,GPIO23_39*%
%TO.N,Net-(U1-GPIO23)*%
X122040000Y-38540000D03*
%TO.P,U1,40,GPIO58_40*%
%TO.N,unconnected-(U1-GPIO58-Pad40)*%
X119500000Y-38540000D03*
%TO.P,U1,41,UART4.RX_41*%
%TO.N,unconnected-(U1-UART4.RX-Pad41)*%
X122040000Y-41080000D03*
%TO.P,U1,42,GPIO57_42*%
%TO.N,unconnected-(U1-GPIO57-Pad42)*%
X119500000Y-41080000D03*
%TO.P,U1,43,UART4.TX_43*%
%TO.N,unconnected-(U1-UART4.TX-Pad43)*%
X122040000Y-43620000D03*
%TO.P,U1,44,GPIO60_44*%
%TO.N,unconnected-(U1-GPIO60-Pad44)*%
X119500000Y-43620000D03*
%TO.P,U1,45,I2C1.SCL_45*%
%TO.N,unconnected-(U1-I2C1.SCL-Pad45)*%
X122040000Y-46160000D03*
%TO.P,U1,46,GPIO52_46*%
%TO.N,unconnected-(U1-GPIO52-Pad46)*%
X119500000Y-46160000D03*
%TO.P,U1,47,I2C1.SDA_47*%
%TO.N,unconnected-(U1-I2C1.SDA-Pad47)*%
X122040000Y-48700000D03*
%TO.P,U1,48,PWR.BTN_48*%
%TO.N,unconnected-(U1-PWR.BTN-Pad48)*%
X119500000Y-48700000D03*
%TO.P,U1,49,VOUT_49*%
%TO.N,unconnected-(U1-VOUT-Pad49)*%
X122040000Y-51240000D03*
%TO.P,U1,50,BAT.VIN_50*%
%TO.N,unconnected-(U1-BAT.VIN-Pad50)*%
X119500000Y-51240000D03*
%TO.P,U1,51,GND_51*%
%TO.N,GND*%
X122040000Y-53780000D03*
%TO.P,U1,52,BAT.TEMP_52*%
%TO.N,unconnected-(U1-BAT.TEMP-Pad52)*%
X119500000Y-53780000D03*
%TO.P,U1,53,GPIO65_53*%
%TO.N,unconnected-(U1-GPIO65-Pad53)*%
X122040000Y-56320000D03*
%TO.P,U1,54,GPIO47_54*%
%TO.N,/TFT_RST*%
X119500000Y-56320000D03*
%TO.P,U1,55,GPIO27_55*%
%TO.N,Net-(U1-GPIO27)*%
X122040000Y-58860000D03*
%TO.P,U1,56,GPIO64_56*%
%TO.N,unconnected-(U1-GPIO64-Pad56)*%
X119500000Y-58860000D03*
%TO.P,U1,57,GND_57*%
%TO.N,GND*%
X122040000Y-61400000D03*
%TO.P,U1,58,GPIO46_58*%
%TO.N,/TFT_DC*%
X119500000Y-61400000D03*
%TO.P,U1,59,3.3V_59*%
%TO.N,+3V3*%
X122040000Y-63940000D03*
%TO.P,U1,60,GPIO48_60*%
%TO.N,unconnected-(U1-GPIO48-Pad60)*%
X119500000Y-63940000D03*
%TO.P,U1,61,SPI1.MOSI_61*%
%TO.N,unconnected-(U1-SPI1.MOSI-Pad61)*%
X122040000Y-66480000D03*
%TO.P,U1,62,~{RESET}_62*%
%TO.N,unconnected-(U1-~{RESET}-Pad62)*%
X119500000Y-66480000D03*
%TO.P,U1,63,SPI1.MISO_63*%
%TO.N,unconnected-(U1-SPI1.MISO-Pad63)*%
X122040000Y-69020000D03*
%TO.P,U1,64,PRU0.6_64*%
%TO.N,unconnected-(U1-PRU0.6-Pad64)*%
X119500000Y-69020000D03*
%TO.P,U1,65,SPI1.CLK_65*%
%TO.N,unconnected-(U1-SPI1.CLK-Pad65)*%
X122040000Y-71560000D03*
%TO.P,U1,66,PRU0.3_66*%
%TO.N,unconnected-(U1-PRU0.3-Pad66)*%
X119500000Y-71560000D03*
%TO.P,U1,67,SPI1.CS_67*%
%TO.N,unconnected-(U1-SPI1.CS-Pad67)*%
X122040000Y-74100000D03*
%TO.P,U1,68,PRU0.2_68*%
%TO.N,unconnected-(U1-PRU0.2-Pad68)*%
X119500000Y-74100000D03*
%TO.P,U1,69,GPIO45_69*%
%TO.N,Net-(U1-GPIO45)*%
X122040000Y-76640000D03*
%TO.P,U1,70,PRU0.5_70*%
%TO.N,unconnected-(U1-PRU0.5-Pad70)*%
X119500000Y-76640000D03*
%TO.P,U1,71,AIN5(3.3V)_71*%
%TO.N,unconnected-(U1-AIN5(3.3V)-Pad71)*%
X122040000Y-79180000D03*
%TO.P,U1,72,AIN7(1.8V)_72*%
%TO.N,unconnected-(U1-AIN7(1.8V)-Pad72)*%
X119500000Y-79180000D03*
%TD*%
D19*
%TO.N,GND*%
X113750000Y-75250000D03*
X99500000Y-89250000D03*
%TO.N,Net-(U1-GPIO23)*%
X70000000Y-118500000D03*
%TO.N,+1V8*%
X52250000Y-98500000D03*
X94500000Y-99000000D03*
X94500000Y-99000000D03*
%TO.N,Net-(U1-AIN0(1.8V))*%
X93500000Y-88250000D03*
%TO.N,Net-(U1-GPIO20)*%
X139750000Y-68500000D03*
X78500000Y-116000000D03*
X89250000Y-116000000D03*
%TO.N,+3V3*%
X133000000Y-56250000D03*
%TO.N,Net-(U1-AIN1(1.8V))*%
X46500000Y-92750000D03*
%TD*%
%TO.N,GND*%
D20*
X127350000Y-34250000D02*
X127350000Y-35300000D01*
X147440000Y-53780000D02*
X144900000Y-53780000D01*
X122040000Y-61400000D02*
X120809000Y-60169000D01*
X139250000Y-60250000D02*
X143750000Y-60250000D01*
X136550000Y-31500000D02*
X138750000Y-33700000D01*
X127350000Y-34250000D02*
X128281000Y-33319000D01*
X144900000Y-53780000D02*
X139250000Y-59430000D01*
X127350000Y-35300000D02*
X128300000Y-36250000D01*
X122040000Y-53780000D02*
X128300000Y-47520000D01*
X138750000Y-33700000D02*
X138750000Y-34250000D01*
X128300000Y-47520000D02*
X138640000Y-47520000D01*
X99750000Y-89250000D02*
X99500000Y-89250000D01*
X138640000Y-47520000D02*
X144900000Y-53780000D01*
X139250000Y-59430000D02*
X139250000Y-60250000D01*
X143750000Y-60250000D02*
X144900000Y-61400000D01*
X120809000Y-55011000D02*
X122040000Y-53780000D01*
X120809000Y-60169000D02*
X120809000Y-55011000D01*
X113750000Y-75250000D02*
X99750000Y-89250000D01*
X128300000Y-47520000D02*
X128300000Y-36250000D01*
%TO.N,Net-(U1-GPIO23)*%
X122040000Y-38540000D02*
X120731000Y-39849000D01*
X120731000Y-39849000D02*
X120731000Y-46669897D01*
X120731000Y-46669897D02*
X120009897Y-47391000D01*
X119068103Y-47391000D02*
X70000000Y-96459103D01*
X120009897Y-47391000D02*
X119068103Y-47391000D01*
X70000000Y-96459103D02*
X70000000Y-118500000D01*
%TO.N,+1V8*%
X52250000Y-97530132D02*
X46784068Y-92064200D01*
X73806200Y-119693800D02*
X94500000Y-99000000D01*
X46784068Y-92064200D02*
X46215932Y-92064200D01*
X45814200Y-92465932D02*
X45814200Y-103267229D01*
X52250000Y-98500000D02*
X52250000Y-97530132D01*
X45814200Y-103267229D02*
X62240771Y-119693800D01*
X46215932Y-92064200D02*
X45814200Y-92465932D01*
X62240771Y-119693800D02*
X73806200Y-119693800D01*
%TO.N,Net-(U1-AIN0(1.8V))*%
X146131000Y-60169000D02*
X146131000Y-61909897D01*
X122549897Y-72869000D02*
X118990103Y-72869000D01*
X103750000Y-91500000D02*
X100000000Y-91500000D01*
X96750000Y-88250000D02*
X93500000Y-88250000D01*
X147440000Y-58860000D02*
X146131000Y-60169000D01*
X103750000Y-88109103D02*
X103750000Y-91500000D01*
X132787897Y-62631000D02*
X122549897Y-72869000D01*
X100000000Y-91500000D02*
X96750000Y-88250000D01*
X145409897Y-62631000D02*
X132787897Y-62631000D01*
X118990103Y-72869000D02*
X103750000Y-88109103D01*
X146131000Y-61909897D02*
X145409897Y-62631000D01*
%TO.N,Net-(U1-GPIO20)*%
X92250000Y-116000000D02*
X89250000Y-116000000D01*
X139750000Y-68500000D02*
X92250000Y-116000000D01*
%TO.N,+3V3*%
X133000000Y-56250000D02*
X125500000Y-63750000D01*
X125500000Y-63750000D02*
X122230000Y-63750000D01*
X122230000Y-63750000D02*
X122040000Y-63940000D01*
%TO.N,Net-(U1-AIN1(1.8V))*%
X148671000Y-64527897D02*
X147949897Y-65249000D01*
X148671000Y-62631000D02*
X148671000Y-64527897D01*
X70284068Y-119185800D02*
X66232771Y-119185800D01*
X141850103Y-65249000D02*
X112349103Y-94750000D01*
X147949897Y-65249000D02*
X141850103Y-65249000D01*
X112349103Y-94750000D02*
X72427523Y-94750000D01*
X72427523Y-94750000D02*
X70685800Y-96491723D01*
X66232771Y-119185800D02*
X46500000Y-99453029D01*
X46500000Y-99453029D02*
X46500000Y-92750000D01*
X70685800Y-118784068D02*
X70284068Y-119185800D01*
X147440000Y-61400000D02*
X148671000Y-62631000D01*
X70685800Y-96491723D02*
X70685800Y-118784068D01*
%TO.N,+5V*%
X148670000Y-41080000D02*
X147440000Y-41080000D01*
X129500000Y-27750000D02*
X148250000Y-27750000D01*
X149000000Y-40750000D02*
X148670000Y-41080000D01*
X149500000Y-40750000D02*
X149000000Y-40750000D01*
X129550000Y-27800000D02*
X129500000Y-27750000D01*
X129550000Y-31500000D02*
X129550000Y-27800000D01*
X148250000Y-27750000D02*
X149500000Y-29000000D01*
X149500000Y-29000000D02*
X149500000Y-40750000D01*
%TO.N,Net-(J1-D-)*%
X143669000Y-39169000D02*
X144349000Y-39849000D01*
X137118296Y-29869000D02*
X143669000Y-36419704D01*
X132050000Y-31500000D02*
X132050000Y-31300704D01*
X144349000Y-39849000D02*
X145409897Y-39849000D01*
X146209000Y-40648103D02*
X146209000Y-44929000D01*
X132050000Y-31300704D02*
X133481704Y-29869000D01*
X143669000Y-36419704D02*
X143669000Y-39169000D01*
X146209000Y-44929000D02*
X147440000Y-46160000D01*
X145409897Y-39849000D02*
X146209000Y-40648103D01*
X133481704Y-29869000D02*
X137118296Y-29869000D01*
%TO.N,Net-(J1-D+)*%
X134050000Y-31500000D02*
X134050000Y-34510897D01*
X146209000Y-45650103D02*
X146209000Y-47469000D01*
X146209000Y-47469000D02*
X147440000Y-48700000D01*
X145409897Y-44851000D02*
X146209000Y-45650103D01*
X144390103Y-44851000D02*
X145409897Y-44851000D01*
X134050000Y-34510897D02*
X144390103Y-44851000D01*
%TO.N,unconnected-(U1-PRU0.4-Pad31)*%
X146500000Y-73960000D02*
X146500000Y-74000000D01*
%TD*%
M02*
