%TF.GenerationSoftware,KiCad,Pcbnew,10.0.0*%
%TF.CreationDate,2026-05-05T23:31:14-05:00*%
%TF.ProjectId,Project_02,50726f6a-6563-4745-9f30-322e6b696361,1*%
%TF.SameCoordinates,Original*%
%TF.FileFunction,Legend,Bot*%
%TF.FilePolarity,Positive*%
%FSLAX46Y46*%
G04 Gerber Fmt 4.6, Leading zero omitted, Abs format (unit mm)*
G04 Created by KiCad (PCBNEW 10.0.0) date 2026-05-05 23:31:14*
%MOMM*%
%LPD*%
G01*
G04 APERTURE LIST*
%ADD10C,0.150000*%
%ADD11C,0.120000*%
G04 APERTURE END LIST*
D10*
X124504819Y-33916666D02*
X125219104Y-33916666D01*
X125219104Y-33916666D02*
X125361961Y-33869047D01*
X125361961Y-33869047D02*
X125457200Y-33773809D01*
X125457200Y-33773809D02*
X125504819Y-33630952D01*
X125504819Y-33630952D02*
X125504819Y-33535714D01*
X125504819Y-34916666D02*
X125504819Y-34345238D01*
X125504819Y-34630952D02*
X124504819Y-34630952D01*
X124504819Y-34630952D02*
X124647676Y-34535714D01*
X124647676Y-34535714D02*
X124742914Y-34440476D01*
X124742914Y-34440476D02*
X124790533Y-34345238D01*
X149911904Y-30154819D02*
X149911904Y-30964342D01*
X149911904Y-30964342D02*
X149864285Y-31059580D01*
X149864285Y-31059580D02*
X149816666Y-31107200D01*
X149816666Y-31107200D02*
X149721428Y-31154819D01*
X149721428Y-31154819D02*
X149530952Y-31154819D01*
X149530952Y-31154819D02*
X149435714Y-31107200D01*
X149435714Y-31107200D02*
X149388095Y-31059580D01*
X149388095Y-31059580D02*
X149340476Y-30964342D01*
X149340476Y-30964342D02*
X149340476Y-30154819D01*
X148340476Y-31154819D02*
X148911904Y-31154819D01*
X148626190Y-31154819D02*
X148626190Y-30154819D01*
X148626190Y-30154819D02*
X148721428Y-30297676D01*
X148721428Y-30297676D02*
X148816666Y-30392914D01*
X148816666Y-30392914D02*
X148911904Y-30440533D01*
%TO.C,J1*%
D11*
X126905000Y-36300000D02*
X126905000Y-37350000D01*
X128650000Y-33130000D02*
X128650000Y-32375000D01*
X128650000Y-33130000D02*
X137450000Y-33130000D01*
X139195000Y-36300000D02*
X139195000Y-37350000D01*
%TO.C,U1*%
X115840000Y-40090000D02*
X115840000Y-75090000D01*
X140970000Y-29960000D02*
X125970000Y-29960000D01*
X140970000Y-85220000D02*
X125970000Y-85220000D01*
X151100000Y-75090000D02*
X151100000Y-40090000D01*
X115840000Y-40090000D02*
G75*
G02*
X125970000Y-29960000I10130000J0D01*
G01*
X125970000Y-85220000D02*
G75*
G02*
X115840000Y-75090000I0J10130000D01*
G01*
X140970000Y-29960000D02*
G75*
G02*
X151100000Y-40090000I0J-10130000D01*
G01*
X148780000Y-33190000D02*
G75*
G02*
X150142916Y-35143919I-7810000J-6900000D01*
G01*
X151100000Y-75090000D02*
G75*
G02*
X140970000Y-85220000I-10130000J0D01*
G01*
%TD*%
M02*
