%TF.GenerationSoftware,KiCad,Pcbnew,10.0.0*%
%TF.CreationDate,2026-05-05T23:31:14-05:00*%
%TF.ProjectId,Project_02,50726f6a-6563-4745-9f30-322e6b696361,1*%
%TF.SameCoordinates,Original*%
%TF.FileFunction,Copper,L1,Top*%
%TF.FilePolarity,Positive*%
%FSLAX46Y46*%
G04 Gerber Fmt 4.6, Leading zero omitted, Abs format (unit mm)*
G04 Created by KiCad (PCBNEW 10.0.0) date 2026-05-05 23:31:14*
%MOMM*%
%LPD*%
G01*
G04 APERTURE LIST*
G04 Aperture macros list*
%AMRoundRect*
0 Rectangle with rounded corners*
0 $1 Rounding radius*
0 $2 $3 $4 $5 $6 $7 $8 $9 X,Y pos of 4 corners*
0 Add a 4 corners polygon primitive as box body*
4,1,4,$2,$3,$4,$5,$6,$7,$8,$9,$2,$3,0*
0 Add four circle primitives for the rounded corners*
1,1,$1+$1,$2,$3*
1,1,$1+$1,$4,$5*
1,1,$1+$1,$6,$7*
1,1,$1+$1,$8,$9*
0 Add four rect primitives between the rounded corners*
20,1,$1+$1,$2,$3,$4,$5,0*
20,1,$1+$1,$4,$5,$6,$7,0*
20,1,$1+$1,$6,$7,$8,$9,0*
20,1,$1+$1,$8,$9,$2,$3,0*%
G04 Aperture macros list end*
%TA.AperFunction,ComponentPad*%
%ADD10C,2.000000*%
%TD*%
%TA.AperFunction,SMDPad,CuDef*%
%ADD11RoundRect,0.250000X0.450000X-0.262500X0.450000X0.262500X-0.450000X0.262500X-0.450000X-0.262500X0*%
%TD*%
%TA.AperFunction,SMDPad,CuDef*%
%ADD12RoundRect,0.243750X0.243750X0.456250X-0.243750X0.456250X-0.243750X-0.456250X0.243750X-0.456250X0*%
%TD*%
%TA.AperFunction,SMDPad,CuDef*%
%ADD13RoundRect,0.250000X-0.400000X-0.550000X0.400000X-0.550000X0.400000X0.550000X-0.400000X0.550000X0*%
%TD*%
%TA.AperFunction,SMDPad,CuDef*%
%ADD14RoundRect,0.250000X-0.750000X-0.550000X0.750000X-0.550000X0.750000X0.550000X-0.750000X0.550000X0*%
%TD*%
%TA.AperFunction,ComponentPad*%
%ADD15R,1.676400X1.676400*%
%TD*%
%TA.AperFunction,ComponentPad*%
%ADD16C,1.676400*%
%TD*%
%TA.AperFunction,ComponentPad*%
%ADD17C,3.600000*%
%TD*%
%TA.AperFunction,SMDPad,CuDef*%
%ADD18RoundRect,0.243750X0.456250X-0.243750X0.456250X0.243750X-0.456250X0.243750X-0.456250X-0.243750X0*%
%TD*%
%TA.AperFunction,ComponentPad*%
%ADD19O,1.900000X3.500000*%
%TD*%
%TA.AperFunction,ComponentPad*%
%ADD20R,1.700000X1.700000*%
%TD*%
%TA.AperFunction,ComponentPad*%
%ADD21O,1.700000X1.700000*%
%TD*%
%TA.AperFunction,ComponentPad*%
%ADD22C,1.700000*%
%TD*%
%TA.AperFunction,ViaPad*%
%ADD23C,0.609600*%
%TD*%
%TA.AperFunction,Conductor*%
%ADD24C,0.254000*%
%TD*%
%TA.AperFunction,Conductor*%
%ADD25C,0.127000*%
%TD*%
G04 APERTURE END LIST*
D10*
%TO.P,SW2,1,1_1*%
%TO.N,GND*%
X60500000Y-111500000D03*
X67000000Y-111500000D03*
%TO.P,SW2,2,2_2*%
%TO.N,Net-(U1-GPIO23)*%
X60500000Y-116000000D03*
X67000000Y-116000000D03*
%TD*%
D11*
%TO.P,R3,1*%
%TO.N,Net-(U1-GPIO27)*%
X132000000Y-102912500D03*
%TO.P,R3,2*%
%TO.N,Net-(D2-A)*%
X132000000Y-101087500D03*
%TD*%
D12*
%TO.P,D3,1,K_1*%
%TO.N,GND*%
X127500000Y-114500000D03*
%TO.P,D3,2,A_2*%
%TO.N,Net-(D3-A)*%
X125625000Y-114500000D03*
%TD*%
D13*
%TO.P,RV1,1,1_1*%
%TO.N,GND*%
X96000000Y-92250000D03*
D14*
%TO.P,RV1,2,2_2*%
%TO.N,+1V8*%
X94750000Y-95150000D03*
D13*
%TO.P,RV1,3,3_3*%
%TO.N,Net-(U1-AIN0(1.8V))*%
X93500000Y-92250000D03*
%TD*%
D10*
%TO.P,SW1,1,1_1*%
%TO.N,GND*%
X73000000Y-111500000D03*
X79500000Y-111500000D03*
%TO.P,SW1,2,2_2*%
%TO.N,Net-(U1-GPIO20)*%
X73000000Y-116000000D03*
X79500000Y-116000000D03*
%TD*%
D11*
%TO.P,R2,1*%
%TO.N,Net-(U1-GPIO45)*%
X119500000Y-95412500D03*
%TO.P,R2,2*%
%TO.N,Net-(D1-A)*%
X119500000Y-93587500D03*
%TD*%
%TO.P,R1,1*%
%TO.N,Net-(U1-GPIO26)*%
X126000000Y-94500000D03*
%TO.P,R1,2*%
%TO.N,Net-(D3-A)*%
X126000000Y-92675000D03*
%TD*%
D12*
%TO.P,D1,1,K_1*%
%TO.N,GND*%
X120437500Y-114500000D03*
%TO.P,D1,2,A_2*%
%TO.N,Net-(D1-A)*%
X118562500Y-114500000D03*
%TD*%
D15*
%TO.P,D8,1,GND_1*%
%TO.N,GND*%
X35750000Y-84455000D03*
D16*
%TO.P,D8,2,3-5V_2*%
%TO.N,+3V3*%
X35750000Y-81915000D03*
%TO.P,D8,3,3.3V_out_3*%
%TO.N,unconnected-(D8-3.3V_out-Pad3)*%
X35750000Y-79375000D03*
%TO.P,D8,4,CLK_4*%
%TO.N,/SPIO_SCLK*%
X35750000Y-76835000D03*
%TO.P,D8,5,MISO_5*%
%TO.N,/SPIO_MISO*%
X35750000Y-74295000D03*
%TO.P,D8,6,MOSI_6*%
%TO.N,/SPIO_MOSI*%
X35750000Y-71755000D03*
%TO.P,D8,7,CS_7*%
%TO.N,/TFT_CS*%
X35750000Y-69215000D03*
%TO.P,D8,8,D/C_8*%
%TO.N,/TFT_DC*%
X35750000Y-66675000D03*
%TO.P,D8,9,RST_9*%
%TO.N,/TFT_RST*%
X35750000Y-64135000D03*
%TO.P,D8,10*%
%TO.N,N/C*%
X35750000Y-61595000D03*
%TO.P,D8,11*%
X35750000Y-59055000D03*
%TO.P,D8,12*%
X35750000Y-56515000D03*
%TO.P,D8,13*%
X35750000Y-53975000D03*
%TO.P,D8,14*%
X35750000Y-51435000D03*
X36180000Y-51757000D03*
%TO.P,D8,15*%
X35750000Y-48895000D03*
%TO.P,D8,16*%
X35750000Y-46355000D03*
%TO.P,D8,17*%
X35750000Y-43815000D03*
%TO.P,D8,18*%
X35750000Y-41275000D03*
%TO.P,D8,19*%
X35750000Y-38735000D03*
%TO.P,D8,20*%
X35750000Y-36195000D03*
D17*
%TO.P,D8,P$1*%
X111950000Y-31750000D03*
X35750000Y-31750000D03*
X111950000Y-88900000D03*
X35750000Y-88900000D03*
%TD*%
D18*
%TO.P,D2,1,K_1*%
%TO.N,GND*%
X132500000Y-115437500D03*
%TO.P,D2,2,A_2*%
%TO.N,Net-(D2-A)*%
X132500000Y-113562500D03*
%TD*%
D13*
%TO.P,RV2,1,1_1*%
%TO.N,GND*%
X53000000Y-92650000D03*
D14*
%TO.P,RV2,2,2_2*%
%TO.N,+1V8*%
X51750000Y-95550000D03*
D13*
%TO.P,RV2,3,3_3*%
%TO.N,Net-(U1-AIN1(1.8V))*%
X50500000Y-92650000D03*
%TD*%
D19*
%TO.P,J1,SH,Shield_SH*%
%TO.N,GND*%
X138750000Y-34250000D03*
X127350000Y-34250000D03*
%TD*%
D20*
%TO.P,U1,1,VIN_1*%
%TO.N,unconnected-(U1-VIN-Pad1)*%
X147440000Y-36000000D03*
D21*
%TO.P,U1,2,AIN6/GPIO87_2*%
%TO.N,unconnected-(U1-AIN6{slash}GPIO87-Pad2)*%
X144900000Y-36000000D03*
%TO.P,U1,3,USB1.DRVVBUS_3*%
%TO.N,unconnected-(U1-USB1.DRVVBUS-Pad3)*%
X147440000Y-38540000D03*
%TO.P,U1,4,GPIO89_4*%
%TO.N,unconnected-(U1-GPIO89-Pad4)*%
X144900000Y-38540000D03*
%TO.P,U1,5,USB1.VBUS_5*%
%TO.N,+5V*%
X147440000Y-41080000D03*
%TO.P,U1,6,SPI0.CS_6*%
%TO.N,/TFT_CS*%
X144900000Y-41080000D03*
%TO.P,U1,7,USB1.VIN_7*%
%TO.N,unconnected-(U1-USB1.VIN-Pad7)*%
X147440000Y-43620000D03*
%TO.P,U1,8,SPI0.CLK_8*%
%TO.N,/SPIO_SCLK*%
X144900000Y-43620000D03*
%TO.P,U1,9,USB1.D-_9*%
%TO.N,Net-(J1-D-)*%
X147440000Y-46160000D03*
%TO.P,U1,10,SPI0.MISO_10*%
%TO.N,/SPIO_MOSI*%
X144900000Y-46160000D03*
%TO.P,U1,11,USB1.D+_11*%
%TO.N,Net-(J1-D+)*%
X147440000Y-48700000D03*
%TO.P,U1,12,SPI0.MOSI_12*%
%TO.N,/SPIO_MOSO*%
X144900000Y-48700000D03*
%TO.P,U1,13,USB1.ID_13*%
%TO.N,unconnected-(U1-USB1.ID-Pad13)*%
X147440000Y-51240000D03*
%TO.P,U1,14,3.3V_14*%
%TO.N,+3V3*%
X144900000Y-51240000D03*
%TO.P,U1,15,GND_15*%
%TO.N,GND*%
X147440000Y-53780000D03*
%TO.P,U1,16,GND_16*%
X144900000Y-53780000D03*
%TO.P,U1,17,AIN.VREF-_17*%
%TO.N,unconnected-(U1-AIN.VREF--Pad17)*%
X147440000Y-56320000D03*
%TO.P,U1,18,AIN.VREF+_18*%
%TO.N,unconnected-(U1-AIN.VREF+-Pad18)*%
X144900000Y-56320000D03*
%TO.P,U1,19,AIN0(1.8V)_19*%
%TO.N,Net-(U1-AIN0(1.8V))*%
X147440000Y-58860000D03*
%TO.P,U1,20,GPIO20_20*%
%TO.N,Net-(U1-GPIO20)*%
X144900000Y-58860000D03*
%TO.P,U1,21,AIN1(1.8V)_21*%
%TO.N,Net-(U1-AIN1(1.8V))*%
X147440000Y-61400000D03*
%TO.P,U1,22,GND_22*%
%TO.N,GND*%
X144900000Y-61400000D03*
%TO.P,U1,23,AIN2(1.8V)_23*%
%TO.N,unconnected-(U1-AIN2(1.8V)-Pad23)*%
X147440000Y-63940000D03*
%TO.P,U1,24,VOUT_24*%
%TO.N,unconnected-(U1-VOUT-Pad24)*%
X144900000Y-63940000D03*
%TO.P,U1,25,AIN3(1.8V)_25*%
%TO.N,unconnected-(U1-AIN3(1.8V)-Pad25)*%
X147440000Y-66480000D03*
%TO.P,U1,26,I2C2.SDA_26*%
%TO.N,unconnected-(U1-I2C2.SDA-Pad26)*%
X144900000Y-66480000D03*
%TO.P,U1,27,AIN4(1.8V)_27*%
%TO.N,unconnected-(U1-AIN4(1.8V)-Pad27)*%
X147440000Y-69020000D03*
%TO.P,U1,28,I2C2.SCL_28*%
%TO.N,unconnected-(U1-I2C2.SCL-Pad28)*%
X144900000Y-69020000D03*
%TO.P,U1,29,PRU0.7_29*%
%TO.N,unconnected-(U1-PRU0.7-Pad29)*%
X147440000Y-71560000D03*
%TO.P,U1,30,UART0.TX_30*%
%TO.N,unconnected-(U1-UART0.TX-Pad30)*%
X144900000Y-71560000D03*
%TO.P,U1,31,PRU0.4_31*%
%TO.N,unconnected-(U1-PRU0.4-Pad31)*%
X147440000Y-74100000D03*
%TO.P,U1,32,UART0.RX_32*%
%TO.N,unconnected-(U1-UART0.RX-Pad32)*%
X144900000Y-74100000D03*
%TO.P,U1,33,PRU0.1_33*%
%TO.N,unconnected-(U1-PRU0.1-Pad33)*%
X147440000Y-76640000D03*
%TO.P,U1,34,GPIO26_34*%
%TO.N,Net-(U1-GPIO26)*%
X144900000Y-76640000D03*
%TO.P,U1,35,PRU1.10_35*%
%TO.N,unconnected-(U1-PRU1.10-Pad35)*%
X147440000Y-79180000D03*
%TO.P,U1,36,PWM0A_36*%
%TO.N,unconnected-(U1-PWM0A-Pad36)*%
X144900000Y-79180000D03*
D22*
%TO.P,U1,37,PWM1A_37*%
%TO.N,unconnected-(U1-PWM1A-Pad37)*%
X122040000Y-36000000D03*
D21*
%TO.P,U1,38,GPIO59_38*%
%TO.N,unconnected-(U1-GPIO59-Pad38)*%
X119500000Y-36000000D03*
%TO.P,U1,39,GPIO23_39*%
%TO.N,Net-(U1-GPIO23)*%
X122040000Y-38540000D03*
%TO.P,U1,40,GPIO58_40*%
%TO.N,unconnected-(U1-GPIO58-Pad40)*%
X119500000Y-38540000D03*
%TO.P,U1,41,UART4.RX_41*%
%TO.N,unconnected-(U1-UART4.RX-Pad41)*%
X122040000Y-41080000D03*
%TO.P,U1,42,GPIO57_42*%
%TO.N,unconnected-(U1-GPIO57-Pad42)*%
X119500000Y-41080000D03*
%TO.P,U1,43,UART4.TX_43*%
%TO.N,unconnected-(U1-UART4.TX-Pad43)*%
X122040000Y-43620000D03*
%TO.P,U1,44,GPIO60_44*%
%TO.N,unconnected-(U1-GPIO60-Pad44)*%
X119500000Y-43620000D03*
%TO.P,U1,45,I2C1.SCL_45*%
%TO.N,unconnected-(U1-I2C1.SCL-Pad45)*%
X122040000Y-46160000D03*
%TO.P,U1,46,GPIO52_46*%
%TO.N,unconnected-(U1-GPIO52-Pad46)*%
X119500000Y-46160000D03*
%TO.P,U1,47,I2C1.SDA_47*%
%TO.N,unconnected-(U1-I2C1.SDA-Pad47)*%
X122040000Y-48700000D03*
%TO.P,U1,48,PWR.BTN_48*%
%TO.N,unconnected-(U1-PWR.BTN-Pad48)*%
X119500000Y-48700000D03*
%TO.P,U1,49,VOUT_49*%
%TO.N,unconnected-(U1-VOUT-Pad49)*%
X122040000Y-51240000D03*
%TO.P,U1,50,BAT.VIN_50*%
%TO.N,unconnected-(U1-BAT.VIN-Pad50)*%
X119500000Y-51240000D03*
%TO.P,U1,51,GND_51*%
%TO.N,GND*%
X122040000Y-53780000D03*
%TO.P,U1,52,BAT.TEMP_52*%
%TO.N,unconnected-(U1-BAT.TEMP-Pad52)*%
X119500000Y-53780000D03*
%TO.P,U1,53,GPIO65_53*%
%TO.N,unconnected-(U1-GPIO65-Pad53)*%
X122040000Y-56320000D03*
%TO.P,U1,54,GPIO47_54*%
%TO.N,/TFT_RST*%
X119500000Y-56320000D03*
%TO.P,U1,55,GPIO27_55*%
%TO.N,Net-(U1-GPIO27)*%
X122040000Y-58860000D03*
%TO.P,U1,56,GPIO64_56*%
%TO.N,unconnected-(U1-GPIO64-Pad56)*%
X119500000Y-58860000D03*
%TO.P,U1,57,GND_57*%
%TO.N,GND*%
X122040000Y-61400000D03*
%TO.P,U1,58,GPIO46_58*%
%TO.N,/TFT_DC*%
X119500000Y-61400000D03*
%TO.P,U1,59,3.3V_59*%
%TO.N,+3V3*%
X122040000Y-63940000D03*
%TO.P,U1,60,GPIO48_60*%
%TO.N,unconnected-(U1-GPIO48-Pad60)*%
X119500000Y-63940000D03*
%TO.P,U1,61,SPI1.MOSI_61*%
%TO.N,unconnected-(U1-SPI1.MOSI-Pad61)*%
X122040000Y-66480000D03*
%TO.P,U1,62,~{RESET}_62*%
%TO.N,unconnected-(U1-~{RESET}-Pad62)*%
X119500000Y-66480000D03*
%TO.P,U1,63,SPI1.MISO_63*%
%TO.N,unconnected-(U1-SPI1.MISO-Pad63)*%
X122040000Y-69020000D03*
%TO.P,U1,64,PRU0.6_64*%
%TO.N,unconnected-(U1-PRU0.6-Pad64)*%
X119500000Y-69020000D03*
%TO.P,U1,65,SPI1.CLK_65*%
%TO.N,unconnected-(U1-SPI1.CLK-Pad65)*%
X122040000Y-71560000D03*
%TO.P,U1,66,PRU0.3_66*%
%TO.N,unconnected-(U1-PRU0.3-Pad66)*%
X119500000Y-71560000D03*
%TO.P,U1,67,SPI1.CS_67*%
%TO.N,unconnected-(U1-SPI1.CS-Pad67)*%
X122040000Y-74100000D03*
%TO.P,U1,68,PRU0.2_68*%
%TO.N,unconnected-(U1-PRU0.2-Pad68)*%
X119500000Y-74100000D03*
%TO.P,U1,69,GPIO45_69*%
%TO.N,Net-(U1-GPIO45)*%
X122040000Y-76640000D03*
%TO.P,U1,70,PRU0.5_70*%
%TO.N,unconnected-(U1-PRU0.5-Pad70)*%
X119500000Y-76640000D03*
%TO.P,U1,71,AIN5(3.3V)_71*%
%TO.N,unconnected-(U1-AIN5(3.3V)-Pad71)*%
X122040000Y-79180000D03*
%TO.P,U1,72,AIN7(1.8V)_72*%
%TO.N,unconnected-(U1-AIN7(1.8V)-Pad72)*%
X119500000Y-79180000D03*
%TD*%
D23*
%TO.N,GND*%
X113750000Y-75250000D03*
X99500000Y-89250000D03*
%TO.N,Net-(U1-GPIO23)*%
X70000000Y-118500000D03*
%TO.N,+1V8*%
X52250000Y-98500000D03*
X94500000Y-99000000D03*
X94500000Y-99000000D03*
%TO.N,Net-(U1-AIN0(1.8V))*%
X93500000Y-88250000D03*
%TO.N,Net-(U1-GPIO20)*%
X139750000Y-68500000D03*
X78500000Y-116000000D03*
X89250000Y-116000000D03*
%TO.N,+3V3*%
X133000000Y-56250000D03*
%TO.N,Net-(U1-AIN1(1.8V))*%
X46500000Y-92750000D03*
%TD*%
%TO.N,GND*%
D24*
X120009897Y-65249000D02*
X118990103Y-65249000D01*
X122040000Y-61400000D02*
X120809000Y-62631000D01*
X79500000Y-111500000D02*
X73000000Y-111500000D01*
X121518500Y-115581000D02*
X120437500Y-114500000D01*
X44805000Y-84455000D02*
X53000000Y-92650000D01*
X99500000Y-89250000D02*
X96500000Y-92250000D01*
X118990103Y-65249000D02*
X113750000Y-70489103D01*
X135500000Y-37500000D02*
X138750000Y-34250000D01*
X96000000Y-93750000D02*
X96000000Y-92250000D01*
X113750000Y-70489103D02*
X113750000Y-75250000D01*
X60500000Y-100150000D02*
X53000000Y-92650000D01*
X127500000Y-114500000D02*
X126419000Y-115581000D01*
X126419000Y-115581000D02*
X121518500Y-115581000D01*
X117831000Y-115581000D02*
X96000000Y-93750000D01*
X119356500Y-115581000D02*
X117831000Y-115581000D01*
X127350000Y-34250000D02*
X130600000Y-37500000D01*
X128437500Y-115437500D02*
X127500000Y-114500000D01*
X79500000Y-108200704D02*
X79500000Y-111500000D01*
X96000000Y-92250000D02*
X95450704Y-92250000D01*
X35750000Y-84455000D02*
X44805000Y-84455000D01*
X96500000Y-92250000D02*
X96000000Y-92250000D01*
X120809000Y-62631000D02*
X120809000Y-64449897D01*
X67000000Y-111500000D02*
X60500000Y-111500000D01*
X120809000Y-64449897D02*
X120009897Y-65249000D01*
X120437500Y-114500000D02*
X119356500Y-115581000D01*
X130600000Y-37500000D02*
X135500000Y-37500000D01*
X60500000Y-111500000D02*
X60500000Y-100150000D01*
X95450704Y-92250000D02*
X79500000Y-108200704D01*
X132500000Y-115437500D02*
X128437500Y-115437500D01*
X73000000Y-111500000D02*
X67000000Y-111500000D01*
%TO.N,Net-(U1-GPIO23)*%
X70000000Y-118500000D02*
X69500000Y-118500000D01*
X69500000Y-118500000D02*
X67000000Y-116000000D01*
X60500000Y-116000000D02*
X67000000Y-116000000D01*
%TO.N,Net-(U1-GPIO27)*%
D25*
X140189000Y-72729000D02*
X147009897Y-72729000D01*
D24*
X123730000Y-56270000D02*
X123730000Y-57170000D01*
X147149897Y-72869000D02*
X149631000Y-72869000D01*
X123730000Y-57170000D02*
X122040000Y-58860000D01*
X123640000Y-56180000D02*
X123930000Y-56180000D01*
X149750000Y-74969103D02*
X149500000Y-75219103D01*
X149750000Y-72750000D02*
X149750000Y-74969103D01*
X149500000Y-75219103D02*
X149500000Y-85412500D01*
X123730000Y-56270000D02*
X140189000Y-72729000D01*
X149500000Y-85412500D02*
X132000000Y-102912500D01*
X149631000Y-72869000D02*
X149750000Y-72750000D01*
X147009897Y-72729000D02*
X147149897Y-72869000D01*
X123640000Y-56180000D02*
X123730000Y-56270000D01*
%TO.N,Net-(D2-A)*%
X132000000Y-101087500D02*
X130750000Y-102337500D01*
X130750000Y-111812500D02*
X132500000Y-113562500D01*
X130750000Y-102337500D02*
X130750000Y-111812500D01*
%TO.N,Net-(D3-A)*%
X126000000Y-92675000D02*
X124919000Y-93756000D01*
X124919000Y-93756000D02*
X124919000Y-113794000D01*
X124919000Y-113794000D02*
X125625000Y-114500000D01*
%TO.N,+1V8*%
X51750000Y-95550000D02*
X51750000Y-98000000D01*
X94500000Y-99000000D02*
X94500000Y-95685800D01*
X51750000Y-98000000D02*
X52250000Y-98500000D01*
X94500000Y-95685800D02*
X94750000Y-95435800D01*
%TO.N,Net-(U1-AIN0(1.8V))*%
X93500000Y-88250000D02*
X93500000Y-92250000D01*
%TO.N,Net-(U1-GPIO20)*%
X89250000Y-116000000D02*
X78000000Y-116000000D01*
X144900000Y-58860000D02*
X139750000Y-64010000D01*
X139750000Y-64010000D02*
X139750000Y-68750000D01*
X73000000Y-116000000D02*
X79500000Y-116000000D01*
%TO.N,Net-(U1-GPIO45)*%
X119587500Y-95412500D02*
X119500000Y-95412500D01*
X125750000Y-89162500D02*
X125750000Y-76250000D01*
X125360000Y-76640000D02*
X122040000Y-76640000D01*
X125750000Y-76250000D02*
X125360000Y-76640000D01*
X119500000Y-95412500D02*
X125750000Y-89162500D01*
%TO.N,Net-(D1-A)*%
X118419000Y-114356500D02*
X118562500Y-114500000D01*
X119500000Y-93587500D02*
X118419000Y-94668500D01*
X118419000Y-94668500D02*
X118419000Y-114356500D01*
%TO.N,Net-(U1-GPIO26)*%
X126000000Y-94500000D02*
X127040000Y-94500000D01*
X127040000Y-94500000D02*
X144900000Y-76640000D01*
X126000000Y-94460000D02*
X126000000Y-94500000D01*
%TO.N,+3V3*%
X120809000Y-77071897D02*
X120809000Y-65171000D01*
X120809000Y-65171000D02*
X122040000Y-63940000D01*
X144900000Y-51240000D02*
X139890000Y-56250000D01*
X39794000Y-77871000D02*
X120009897Y-77871000D01*
X120009897Y-77871000D02*
X120809000Y-77071897D01*
X35750000Y-81915000D02*
X39794000Y-77871000D01*
X139890000Y-56250000D02*
X133000000Y-56250000D01*
%TO.N,/SPIO_SCLK*%
X120809000Y-61831897D02*
X120809000Y-45572103D01*
X121452103Y-44929000D02*
X143591000Y-44929000D01*
X118990103Y-62631000D02*
X120009897Y-62631000D01*
X143591000Y-44929000D02*
X144900000Y-43620000D01*
X104786103Y-76835000D02*
X118990103Y-62631000D01*
X35750000Y-76835000D02*
X104786103Y-76835000D01*
X120009897Y-62631000D02*
X120809000Y-61831897D01*
X120809000Y-45572103D02*
X121452103Y-44929000D01*
%TO.N,/SPIO_MOSI*%
X146131000Y-40570103D02*
X146131000Y-44929000D01*
X145409897Y-39849000D02*
X146131000Y-40570103D01*
X35750000Y-71755000D02*
X33569000Y-69574000D01*
X112853400Y-33931000D02*
X118771400Y-39849000D01*
X146131000Y-44929000D02*
X144900000Y-46160000D01*
X118771400Y-39849000D02*
X145409897Y-39849000D01*
X33569000Y-69574000D02*
X33569000Y-35208600D01*
X33569000Y-35208600D02*
X34846600Y-33931000D01*
X34846600Y-33931000D02*
X112853400Y-33931000D01*
%TO.N,/TFT_CS*%
X118189001Y-42311000D02*
X143669000Y-42311000D01*
X34530800Y-63629990D02*
X35244990Y-62915800D01*
X35244990Y-62915800D02*
X97584201Y-62915800D01*
X143669000Y-42311000D02*
X144900000Y-41080000D01*
X34530800Y-67995800D02*
X34530800Y-63629990D01*
X35750000Y-69215000D02*
X34530800Y-67995800D01*
X97584201Y-62915800D02*
X118189001Y-42311000D01*
%TO.N,/TFT_DC*%
X35750000Y-66675000D02*
X114225000Y-66675000D01*
X114225000Y-66675000D02*
X119500000Y-61400000D01*
%TO.N,/TFT_RST*%
X35750000Y-64135000D02*
X111685000Y-64135000D01*
X111685000Y-64135000D02*
X119500000Y-56320000D01*
%TO.N,Net-(U1-AIN1(1.8V))*%
X46500000Y-92750000D02*
X46600000Y-92650000D01*
X46600000Y-92650000D02*
X50500000Y-92650000D01*
%TD*%
M02*
