%TF.GenerationSoftware,KiCad,Pcbnew,10.0.0*%
%TF.CreationDate,2026-05-05T23:31:14-05:00*%
%TF.ProjectId,Project_02,50726f6a-6563-4745-9f30-322e6b696361,1*%
%TF.SameCoordinates,Original*%
%TF.FileFunction,Soldermask,Top*%
%TF.FilePolarity,Negative*%
%FSLAX46Y46*%
G04 Gerber Fmt 4.6, Leading zero omitted, Abs format (unit mm)*
G04 Created by KiCad (PCBNEW 10.0.0) date 2026-05-05 23:31:14*
%MOMM*%
%LPD*%
G01*
G04 APERTURE LIST*
G04 Aperture macros list*
%AMRoundRect*
0 Rectangle with rounded corners*
0 $1 Rounding radius*
0 $2 $3 $4 $5 $6 $7 $8 $9 X,Y pos of 4 corners*
0 Add a 4 corners polygon primitive as box body*
4,1,4,$2,$3,$4,$5,$6,$7,$8,$9,$2,$3,0*
0 Add four circle primitives for the rounded corners*
1,1,$1+$1,$2,$3*
1,1,$1+$1,$4,$5*
1,1,$1+$1,$6,$7*
1,1,$1+$1,$8,$9*
0 Add four rect primitives between the rounded corners*
20,1,$1+$1,$2,$3,$4,$5,0*
20,1,$1+$1,$4,$5,$6,$7,0*
20,1,$1+$1,$6,$7,$8,$9,0*
20,1,$1+$1,$8,$9,$2,$3,0*%
G04 Aperture macros list end*
%ADD10C,2.000000*%
%ADD11RoundRect,0.250000X0.450000X-0.262500X0.450000X0.262500X-0.450000X0.262500X-0.450000X-0.262500X0*%
%ADD12RoundRect,0.243750X0.243750X0.456250X-0.243750X0.456250X-0.243750X-0.456250X0.243750X-0.456250X0*%
%ADD13RoundRect,0.250000X-0.400000X-0.550000X0.400000X-0.550000X0.400000X0.550000X-0.400000X0.550000X0*%
%ADD14RoundRect,0.250000X-0.750000X-0.550000X0.750000X-0.550000X0.750000X0.550000X-0.750000X0.550000X0*%
%ADD15RoundRect,0.101600X0.838200X0.838200X-0.838200X0.838200X-0.838200X-0.838200X0.838200X-0.838200X0*%
%ADD16C,1.879600*%
%ADD17C,3.803200*%
%ADD18RoundRect,0.243750X0.456250X-0.243750X0.456250X0.243750X-0.456250X0.243750X-0.456250X-0.243750X0*%
%ADD19C,1.100000*%
%ADD20O,1.900000X3.500000*%
%ADD21R,1.700000X1.700000*%
%ADD22O,1.700000X1.700000*%
%ADD23C,1.700000*%
G04 APERTURE END LIST*
D10*
%TO.C,SW2*%
X60500000Y-111500000D03*
X67000000Y-111500000D03*
X60500000Y-116000000D03*
X67000000Y-116000000D03*
%TD*%
D11*
%TO.C,R3*%
X132000000Y-102912500D03*
X132000000Y-101087500D03*
%TD*%
D12*
%TO.C,D3*%
X127500000Y-114500000D03*
X125625000Y-114500000D03*
%TD*%
D13*
%TO.C,RV1*%
X96000000Y-92250000D03*
D14*
X94750000Y-95150000D03*
D13*
X93500000Y-92250000D03*
%TD*%
D10*
%TO.C,SW1*%
X73000000Y-111500000D03*
X79500000Y-111500000D03*
X73000000Y-116000000D03*
X79500000Y-116000000D03*
%TD*%
D11*
%TO.C,R2*%
X119500000Y-95412500D03*
X119500000Y-93587500D03*
%TD*%
%TO.C,R1*%
X126000000Y-94500000D03*
X126000000Y-92675000D03*
%TD*%
D12*
%TO.C,D1*%
X120437500Y-114500000D03*
X118562500Y-114500000D03*
%TD*%
D15*
%TO.C,D8*%
X35750000Y-84455000D03*
D16*
X35750000Y-81915000D03*
X35750000Y-79375000D03*
X35750000Y-76835000D03*
X35750000Y-74295000D03*
X35750000Y-71755000D03*
X35750000Y-69215000D03*
X35750000Y-66675000D03*
X35750000Y-64135000D03*
X35750000Y-61595000D03*
X35750000Y-59055000D03*
X35750000Y-56515000D03*
X35750000Y-53975000D03*
X35750000Y-51435000D03*
X36180000Y-51757000D03*
X35750000Y-48895000D03*
X35750000Y-46355000D03*
X35750000Y-43815000D03*
X35750000Y-41275000D03*
X35750000Y-38735000D03*
X35750000Y-36195000D03*
D17*
X111950000Y-31750000D03*
X35750000Y-31750000D03*
X111950000Y-88900000D03*
X35750000Y-88900000D03*
%TD*%
D18*
%TO.C,D2*%
X132500000Y-115437500D03*
X132500000Y-113562500D03*
%TD*%
D13*
%TO.C,RV2*%
X53000000Y-92650000D03*
D14*
X51750000Y-95550000D03*
D13*
X50500000Y-92650000D03*
%TD*%
D19*
%TO.C,J1*%
X135350000Y-34250000D03*
X130750000Y-34250000D03*
D20*
X138750000Y-34250000D03*
X127350000Y-34250000D03*
%TD*%
D21*
%TO.C,U1*%
X147440000Y-36000000D03*
D22*
X144900000Y-36000000D03*
X147440000Y-38540000D03*
X144900000Y-38540000D03*
X147440000Y-41080000D03*
X144900000Y-41080000D03*
X147440000Y-43620000D03*
X144900000Y-43620000D03*
X147440000Y-46160000D03*
X144900000Y-46160000D03*
X147440000Y-48700000D03*
X144900000Y-48700000D03*
X147440000Y-51240000D03*
X144900000Y-51240000D03*
X147440000Y-53780000D03*
X144900000Y-53780000D03*
X147440000Y-56320000D03*
X144900000Y-56320000D03*
X147440000Y-58860000D03*
X144900000Y-58860000D03*
X147440000Y-61400000D03*
X144900000Y-61400000D03*
X147440000Y-63940000D03*
X144900000Y-63940000D03*
X147440000Y-66480000D03*
X144900000Y-66480000D03*
X147440000Y-69020000D03*
X144900000Y-69020000D03*
X147440000Y-71560000D03*
X144900000Y-71560000D03*
X147440000Y-74100000D03*
X144900000Y-74100000D03*
X147440000Y-76640000D03*
X144900000Y-76640000D03*
X147440000Y-79180000D03*
X144900000Y-79180000D03*
D23*
X122040000Y-36000000D03*
D22*
X119500000Y-36000000D03*
X122040000Y-38540000D03*
X119500000Y-38540000D03*
X122040000Y-41080000D03*
X119500000Y-41080000D03*
X122040000Y-43620000D03*
X119500000Y-43620000D03*
X122040000Y-46160000D03*
X119500000Y-46160000D03*
X122040000Y-48700000D03*
X119500000Y-48700000D03*
X122040000Y-51240000D03*
X119500000Y-51240000D03*
X122040000Y-53780000D03*
X119500000Y-53780000D03*
X122040000Y-56320000D03*
X119500000Y-56320000D03*
X122040000Y-58860000D03*
X119500000Y-58860000D03*
X122040000Y-61400000D03*
X119500000Y-61400000D03*
X122040000Y-63940000D03*
X119500000Y-63940000D03*
X122040000Y-66480000D03*
X119500000Y-66480000D03*
X122040000Y-69020000D03*
X119500000Y-69020000D03*
X122040000Y-71560000D03*
X119500000Y-71560000D03*
X122040000Y-74100000D03*
X119500000Y-74100000D03*
X122040000Y-76640000D03*
X119500000Y-76640000D03*
X122040000Y-79180000D03*
X119500000Y-79180000D03*
%TD*%
M02*
