%TF.GenerationSoftware,KiCad,Pcbnew,10.0.0*%
%TF.CreationDate,2026-05-05T23:31:14-05:00*%
%TF.ProjectId,Project_02,50726f6a-6563-4745-9f30-322e6b696361,1*%
%TF.SameCoordinates,Original*%
%TF.FileFunction,Legend,Top*%
%TF.FilePolarity,Positive*%
%FSLAX46Y46*%
G04 Gerber Fmt 4.6, Leading zero omitted, Abs format (unit mm)*
G04 Created by KiCad (PCBNEW 10.0.0) date 2026-05-05 23:31:14*
%MOMM*%
%LPD*%
G01*
G04 APERTURE LIST*
%ADD10C,0.254000*%
%ADD11C,0.177800*%
%ADD12C,0.127000*%
%ADD13C,0.150000*%
%ADD14C,0.101600*%
%ADD15C,0.120000*%
G04 APERTURE END LIST*
D10*
X109410000Y-85725000D02*
X109410000Y-89500000D01*
D11*
X112500000Y-91500000D02*
G75*
G02*
X109496710Y-89483261I-500000J2500000D01*
G01*
D12*
X114523040Y-89027000D02*
G75*
G02*
X112500000Y-91500000I-2523040J0D01*
G01*
D13*
X62416667Y-109907200D02*
X62559524Y-109954819D01*
X62559524Y-109954819D02*
X62797619Y-109954819D01*
X62797619Y-109954819D02*
X62892857Y-109907200D01*
X62892857Y-109907200D02*
X62940476Y-109859580D01*
X62940476Y-109859580D02*
X62988095Y-109764342D01*
X62988095Y-109764342D02*
X62988095Y-109669104D01*
X62988095Y-109669104D02*
X62940476Y-109573866D01*
X62940476Y-109573866D02*
X62892857Y-109526247D01*
X62892857Y-109526247D02*
X62797619Y-109478628D01*
X62797619Y-109478628D02*
X62607143Y-109431009D01*
X62607143Y-109431009D02*
X62511905Y-109383390D01*
X62511905Y-109383390D02*
X62464286Y-109335771D01*
X62464286Y-109335771D02*
X62416667Y-109240533D01*
X62416667Y-109240533D02*
X62416667Y-109145295D01*
X62416667Y-109145295D02*
X62464286Y-109050057D01*
X62464286Y-109050057D02*
X62511905Y-109002438D01*
X62511905Y-109002438D02*
X62607143Y-108954819D01*
X62607143Y-108954819D02*
X62845238Y-108954819D01*
X62845238Y-108954819D02*
X62988095Y-109002438D01*
X63321429Y-108954819D02*
X63559524Y-109954819D01*
X63559524Y-109954819D02*
X63750000Y-109240533D01*
X63750000Y-109240533D02*
X63940476Y-109954819D01*
X63940476Y-109954819D02*
X64178572Y-108954819D01*
X64511905Y-109050057D02*
X64559524Y-109002438D01*
X64559524Y-109002438D02*
X64654762Y-108954819D01*
X64654762Y-108954819D02*
X64892857Y-108954819D01*
X64892857Y-108954819D02*
X64988095Y-109002438D01*
X64988095Y-109002438D02*
X65035714Y-109050057D01*
X65035714Y-109050057D02*
X65083333Y-109145295D01*
X65083333Y-109145295D02*
X65083333Y-109240533D01*
X65083333Y-109240533D02*
X65035714Y-109383390D01*
X65035714Y-109383390D02*
X64464286Y-109954819D01*
X64464286Y-109954819D02*
X65083333Y-109954819D01*
X130804819Y-102166666D02*
X130328628Y-102499999D01*
X130804819Y-102738094D02*
X129804819Y-102738094D01*
X129804819Y-102738094D02*
X129804819Y-102357142D01*
X129804819Y-102357142D02*
X129852438Y-102261904D01*
X129852438Y-102261904D02*
X129900057Y-102214285D01*
X129900057Y-102214285D02*
X129995295Y-102166666D01*
X129995295Y-102166666D02*
X130138152Y-102166666D01*
X130138152Y-102166666D02*
X130233390Y-102214285D01*
X130233390Y-102214285D02*
X130281009Y-102261904D01*
X130281009Y-102261904D02*
X130328628Y-102357142D01*
X130328628Y-102357142D02*
X130328628Y-102738094D01*
X129804819Y-101833332D02*
X129804819Y-101214285D01*
X129804819Y-101214285D02*
X130185771Y-101547618D01*
X130185771Y-101547618D02*
X130185771Y-101404761D01*
X130185771Y-101404761D02*
X130233390Y-101309523D01*
X130233390Y-101309523D02*
X130281009Y-101261904D01*
X130281009Y-101261904D02*
X130376247Y-101214285D01*
X130376247Y-101214285D02*
X130614342Y-101214285D01*
X130614342Y-101214285D02*
X130709580Y-101261904D01*
X130709580Y-101261904D02*
X130757200Y-101309523D01*
X130757200Y-101309523D02*
X130804819Y-101404761D01*
X130804819Y-101404761D02*
X130804819Y-101690475D01*
X130804819Y-101690475D02*
X130757200Y-101785713D01*
X130757200Y-101785713D02*
X130709580Y-101833332D01*
X125824405Y-116604819D02*
X125824405Y-115604819D01*
X125824405Y-115604819D02*
X126062500Y-115604819D01*
X126062500Y-115604819D02*
X126205357Y-115652438D01*
X126205357Y-115652438D02*
X126300595Y-115747676D01*
X126300595Y-115747676D02*
X126348214Y-115842914D01*
X126348214Y-115842914D02*
X126395833Y-116033390D01*
X126395833Y-116033390D02*
X126395833Y-116176247D01*
X126395833Y-116176247D02*
X126348214Y-116366723D01*
X126348214Y-116366723D02*
X126300595Y-116461961D01*
X126300595Y-116461961D02*
X126205357Y-116557200D01*
X126205357Y-116557200D02*
X126062500Y-116604819D01*
X126062500Y-116604819D02*
X125824405Y-116604819D01*
X126729167Y-115604819D02*
X127348214Y-115604819D01*
X127348214Y-115604819D02*
X127014881Y-115985771D01*
X127014881Y-115985771D02*
X127157738Y-115985771D01*
X127157738Y-115985771D02*
X127252976Y-116033390D01*
X127252976Y-116033390D02*
X127300595Y-116081009D01*
X127300595Y-116081009D02*
X127348214Y-116176247D01*
X127348214Y-116176247D02*
X127348214Y-116414342D01*
X127348214Y-116414342D02*
X127300595Y-116509580D01*
X127300595Y-116509580D02*
X127252976Y-116557200D01*
X127252976Y-116557200D02*
X127157738Y-116604819D01*
X127157738Y-116604819D02*
X126872024Y-116604819D01*
X126872024Y-116604819D02*
X126776786Y-116557200D01*
X126776786Y-116557200D02*
X126729167Y-116509580D01*
X94154761Y-90654819D02*
X93821428Y-90178628D01*
X93583333Y-90654819D02*
X93583333Y-89654819D01*
X93583333Y-89654819D02*
X93964285Y-89654819D01*
X93964285Y-89654819D02*
X94059523Y-89702438D01*
X94059523Y-89702438D02*
X94107142Y-89750057D01*
X94107142Y-89750057D02*
X94154761Y-89845295D01*
X94154761Y-89845295D02*
X94154761Y-89988152D01*
X94154761Y-89988152D02*
X94107142Y-90083390D01*
X94107142Y-90083390D02*
X94059523Y-90131009D01*
X94059523Y-90131009D02*
X93964285Y-90178628D01*
X93964285Y-90178628D02*
X93583333Y-90178628D01*
X94440476Y-89654819D02*
X94773809Y-90654819D01*
X94773809Y-90654819D02*
X95107142Y-89654819D01*
X95964285Y-90654819D02*
X95392857Y-90654819D01*
X95678571Y-90654819D02*
X95678571Y-89654819D01*
X95678571Y-89654819D02*
X95583333Y-89797676D01*
X95583333Y-89797676D02*
X95488095Y-89892914D01*
X95488095Y-89892914D02*
X95392857Y-89940533D01*
X74916667Y-109907200D02*
X75059524Y-109954819D01*
X75059524Y-109954819D02*
X75297619Y-109954819D01*
X75297619Y-109954819D02*
X75392857Y-109907200D01*
X75392857Y-109907200D02*
X75440476Y-109859580D01*
X75440476Y-109859580D02*
X75488095Y-109764342D01*
X75488095Y-109764342D02*
X75488095Y-109669104D01*
X75488095Y-109669104D02*
X75440476Y-109573866D01*
X75440476Y-109573866D02*
X75392857Y-109526247D01*
X75392857Y-109526247D02*
X75297619Y-109478628D01*
X75297619Y-109478628D02*
X75107143Y-109431009D01*
X75107143Y-109431009D02*
X75011905Y-109383390D01*
X75011905Y-109383390D02*
X74964286Y-109335771D01*
X74964286Y-109335771D02*
X74916667Y-109240533D01*
X74916667Y-109240533D02*
X74916667Y-109145295D01*
X74916667Y-109145295D02*
X74964286Y-109050057D01*
X74964286Y-109050057D02*
X75011905Y-109002438D01*
X75011905Y-109002438D02*
X75107143Y-108954819D01*
X75107143Y-108954819D02*
X75345238Y-108954819D01*
X75345238Y-108954819D02*
X75488095Y-109002438D01*
X75821429Y-108954819D02*
X76059524Y-109954819D01*
X76059524Y-109954819D02*
X76250000Y-109240533D01*
X76250000Y-109240533D02*
X76440476Y-109954819D01*
X76440476Y-109954819D02*
X76678572Y-108954819D01*
X77583333Y-109954819D02*
X77011905Y-109954819D01*
X77297619Y-109954819D02*
X77297619Y-108954819D01*
X77297619Y-108954819D02*
X77202381Y-109097676D01*
X77202381Y-109097676D02*
X77107143Y-109192914D01*
X77107143Y-109192914D02*
X77011905Y-109240533D01*
X118304819Y-94666666D02*
X117828628Y-94999999D01*
X118304819Y-95238094D02*
X117304819Y-95238094D01*
X117304819Y-95238094D02*
X117304819Y-94857142D01*
X117304819Y-94857142D02*
X117352438Y-94761904D01*
X117352438Y-94761904D02*
X117400057Y-94714285D01*
X117400057Y-94714285D02*
X117495295Y-94666666D01*
X117495295Y-94666666D02*
X117638152Y-94666666D01*
X117638152Y-94666666D02*
X117733390Y-94714285D01*
X117733390Y-94714285D02*
X117781009Y-94761904D01*
X117781009Y-94761904D02*
X117828628Y-94857142D01*
X117828628Y-94857142D02*
X117828628Y-95238094D01*
X117400057Y-94285713D02*
X117352438Y-94238094D01*
X117352438Y-94238094D02*
X117304819Y-94142856D01*
X117304819Y-94142856D02*
X117304819Y-93904761D01*
X117304819Y-93904761D02*
X117352438Y-93809523D01*
X117352438Y-93809523D02*
X117400057Y-93761904D01*
X117400057Y-93761904D02*
X117495295Y-93714285D01*
X117495295Y-93714285D02*
X117590533Y-93714285D01*
X117590533Y-93714285D02*
X117733390Y-93761904D01*
X117733390Y-93761904D02*
X118304819Y-94333332D01*
X118304819Y-94333332D02*
X118304819Y-93714285D01*
X124804819Y-93754166D02*
X124328628Y-94087499D01*
X124804819Y-94325594D02*
X123804819Y-94325594D01*
X123804819Y-94325594D02*
X123804819Y-93944642D01*
X123804819Y-93944642D02*
X123852438Y-93849404D01*
X123852438Y-93849404D02*
X123900057Y-93801785D01*
X123900057Y-93801785D02*
X123995295Y-93754166D01*
X123995295Y-93754166D02*
X124138152Y-93754166D01*
X124138152Y-93754166D02*
X124233390Y-93801785D01*
X124233390Y-93801785D02*
X124281009Y-93849404D01*
X124281009Y-93849404D02*
X124328628Y-93944642D01*
X124328628Y-93944642D02*
X124328628Y-94325594D01*
X124804819Y-92801785D02*
X124804819Y-93373213D01*
X124804819Y-93087499D02*
X123804819Y-93087499D01*
X123804819Y-93087499D02*
X123947676Y-93182737D01*
X123947676Y-93182737D02*
X124042914Y-93277975D01*
X124042914Y-93277975D02*
X124090533Y-93373213D01*
X118761905Y-116604819D02*
X118761905Y-115604819D01*
X118761905Y-115604819D02*
X119000000Y-115604819D01*
X119000000Y-115604819D02*
X119142857Y-115652438D01*
X119142857Y-115652438D02*
X119238095Y-115747676D01*
X119238095Y-115747676D02*
X119285714Y-115842914D01*
X119285714Y-115842914D02*
X119333333Y-116033390D01*
X119333333Y-116033390D02*
X119333333Y-116176247D01*
X119333333Y-116176247D02*
X119285714Y-116366723D01*
X119285714Y-116366723D02*
X119238095Y-116461961D01*
X119238095Y-116461961D02*
X119142857Y-116557200D01*
X119142857Y-116557200D02*
X119000000Y-116604819D01*
X119000000Y-116604819D02*
X118761905Y-116604819D01*
X120285714Y-116604819D02*
X119714286Y-116604819D01*
X120000000Y-116604819D02*
X120000000Y-115604819D01*
X120000000Y-115604819D02*
X119904762Y-115747676D01*
X119904762Y-115747676D02*
X119809524Y-115842914D01*
X119809524Y-115842914D02*
X119714286Y-115890533D01*
D14*
X38462689Y-36765449D02*
X38407051Y-36821088D01*
X38407051Y-36821088D02*
X38240137Y-36876726D01*
X38240137Y-36876726D02*
X38128861Y-36876726D01*
X38128861Y-36876726D02*
X37961946Y-36821088D01*
X37961946Y-36821088D02*
X37850670Y-36709811D01*
X37850670Y-36709811D02*
X37795032Y-36598535D01*
X37795032Y-36598535D02*
X37739394Y-36375983D01*
X37739394Y-36375983D02*
X37739394Y-36209068D01*
X37739394Y-36209068D02*
X37795032Y-35986516D01*
X37795032Y-35986516D02*
X37850670Y-35875240D01*
X37850670Y-35875240D02*
X37961946Y-35763964D01*
X37961946Y-35763964D02*
X38128861Y-35708326D01*
X38128861Y-35708326D02*
X38240137Y-35708326D01*
X38240137Y-35708326D02*
X38407051Y-35763964D01*
X38407051Y-35763964D02*
X38462689Y-35819602D01*
X39464175Y-36876726D02*
X39464175Y-36264707D01*
X39464175Y-36264707D02*
X39408537Y-36153430D01*
X39408537Y-36153430D02*
X39297261Y-36097792D01*
X39297261Y-36097792D02*
X39074708Y-36097792D01*
X39074708Y-36097792D02*
X38963432Y-36153430D01*
X39464175Y-36821088D02*
X39352899Y-36876726D01*
X39352899Y-36876726D02*
X39074708Y-36876726D01*
X39074708Y-36876726D02*
X38963432Y-36821088D01*
X38963432Y-36821088D02*
X38907794Y-36709811D01*
X38907794Y-36709811D02*
X38907794Y-36598535D01*
X38907794Y-36598535D02*
X38963432Y-36487259D01*
X38963432Y-36487259D02*
X39074708Y-36431621D01*
X39074708Y-36431621D02*
X39352899Y-36431621D01*
X39352899Y-36431621D02*
X39464175Y-36375983D01*
X40020556Y-36876726D02*
X40020556Y-36097792D01*
X40020556Y-36320345D02*
X40076194Y-36209068D01*
X40076194Y-36209068D02*
X40131832Y-36153430D01*
X40131832Y-36153430D02*
X40243108Y-36097792D01*
X40243108Y-36097792D02*
X40354385Y-36097792D01*
X41244594Y-36876726D02*
X41244594Y-35708326D01*
X41244594Y-36821088D02*
X41133318Y-36876726D01*
X41133318Y-36876726D02*
X40910765Y-36876726D01*
X40910765Y-36876726D02*
X40799489Y-36821088D01*
X40799489Y-36821088D02*
X40743851Y-36765449D01*
X40743851Y-36765449D02*
X40688213Y-36654173D01*
X40688213Y-36654173D02*
X40688213Y-36320345D01*
X40688213Y-36320345D02*
X40743851Y-36209068D01*
X40743851Y-36209068D02*
X40799489Y-36153430D01*
X40799489Y-36153430D02*
X40910765Y-36097792D01*
X40910765Y-36097792D02*
X41133318Y-36097792D01*
X41133318Y-36097792D02*
X41244594Y-36153430D01*
X42691185Y-36876726D02*
X42691185Y-35708326D01*
X42691185Y-35708326D02*
X42969375Y-35708326D01*
X42969375Y-35708326D02*
X43136290Y-35763964D01*
X43136290Y-35763964D02*
X43247566Y-35875240D01*
X43247566Y-35875240D02*
X43303204Y-35986516D01*
X43303204Y-35986516D02*
X43358842Y-36209068D01*
X43358842Y-36209068D02*
X43358842Y-36375983D01*
X43358842Y-36375983D02*
X43303204Y-36598535D01*
X43303204Y-36598535D02*
X43247566Y-36709811D01*
X43247566Y-36709811D02*
X43136290Y-36821088D01*
X43136290Y-36821088D02*
X42969375Y-36876726D01*
X42969375Y-36876726D02*
X42691185Y-36876726D01*
X44304690Y-36821088D02*
X44193414Y-36876726D01*
X44193414Y-36876726D02*
X43970861Y-36876726D01*
X43970861Y-36876726D02*
X43859585Y-36821088D01*
X43859585Y-36821088D02*
X43803947Y-36709811D01*
X43803947Y-36709811D02*
X43803947Y-36264707D01*
X43803947Y-36264707D02*
X43859585Y-36153430D01*
X43859585Y-36153430D02*
X43970861Y-36097792D01*
X43970861Y-36097792D02*
X44193414Y-36097792D01*
X44193414Y-36097792D02*
X44304690Y-36153430D01*
X44304690Y-36153430D02*
X44360328Y-36264707D01*
X44360328Y-36264707D02*
X44360328Y-36375983D01*
X44360328Y-36375983D02*
X43803947Y-36487259D01*
X44694157Y-36097792D02*
X45139261Y-36097792D01*
X44861071Y-35708326D02*
X44861071Y-36709811D01*
X44861071Y-36709811D02*
X44916709Y-36821088D01*
X44916709Y-36821088D02*
X45027985Y-36876726D01*
X45027985Y-36876726D02*
X45139261Y-36876726D01*
X45973833Y-36821088D02*
X45862557Y-36876726D01*
X45862557Y-36876726D02*
X45640004Y-36876726D01*
X45640004Y-36876726D02*
X45528728Y-36821088D01*
X45528728Y-36821088D02*
X45473090Y-36709811D01*
X45473090Y-36709811D02*
X45473090Y-36264707D01*
X45473090Y-36264707D02*
X45528728Y-36153430D01*
X45528728Y-36153430D02*
X45640004Y-36097792D01*
X45640004Y-36097792D02*
X45862557Y-36097792D01*
X45862557Y-36097792D02*
X45973833Y-36153430D01*
X45973833Y-36153430D02*
X46029471Y-36264707D01*
X46029471Y-36264707D02*
X46029471Y-36375983D01*
X46029471Y-36375983D02*
X45473090Y-36487259D01*
X47030957Y-36821088D02*
X46919681Y-36876726D01*
X46919681Y-36876726D02*
X46697128Y-36876726D01*
X46697128Y-36876726D02*
X46585852Y-36821088D01*
X46585852Y-36821088D02*
X46530214Y-36765449D01*
X46530214Y-36765449D02*
X46474576Y-36654173D01*
X46474576Y-36654173D02*
X46474576Y-36320345D01*
X46474576Y-36320345D02*
X46530214Y-36209068D01*
X46530214Y-36209068D02*
X46585852Y-36153430D01*
X46585852Y-36153430D02*
X46697128Y-36097792D01*
X46697128Y-36097792D02*
X46919681Y-36097792D01*
X46919681Y-36097792D02*
X47030957Y-36153430D01*
X47364786Y-36097792D02*
X47809890Y-36097792D01*
X47531700Y-35708326D02*
X47531700Y-36709811D01*
X47531700Y-36709811D02*
X47587338Y-36821088D01*
X47587338Y-36821088D02*
X47698614Y-36876726D01*
X47698614Y-36876726D02*
X47809890Y-36876726D01*
X38462689Y-39305449D02*
X38407051Y-39361088D01*
X38407051Y-39361088D02*
X38240137Y-39416726D01*
X38240137Y-39416726D02*
X38128861Y-39416726D01*
X38128861Y-39416726D02*
X37961946Y-39361088D01*
X37961946Y-39361088D02*
X37850670Y-39249811D01*
X37850670Y-39249811D02*
X37795032Y-39138535D01*
X37795032Y-39138535D02*
X37739394Y-38915983D01*
X37739394Y-38915983D02*
X37739394Y-38749068D01*
X37739394Y-38749068D02*
X37795032Y-38526516D01*
X37795032Y-38526516D02*
X37850670Y-38415240D01*
X37850670Y-38415240D02*
X37961946Y-38303964D01*
X37961946Y-38303964D02*
X38128861Y-38248326D01*
X38128861Y-38248326D02*
X38240137Y-38248326D01*
X38240137Y-38248326D02*
X38407051Y-38303964D01*
X38407051Y-38303964D02*
X38462689Y-38359602D01*
X39464175Y-39416726D02*
X39464175Y-38804707D01*
X39464175Y-38804707D02*
X39408537Y-38693430D01*
X39408537Y-38693430D02*
X39297261Y-38637792D01*
X39297261Y-38637792D02*
X39074708Y-38637792D01*
X39074708Y-38637792D02*
X38963432Y-38693430D01*
X39464175Y-39361088D02*
X39352899Y-39416726D01*
X39352899Y-39416726D02*
X39074708Y-39416726D01*
X39074708Y-39416726D02*
X38963432Y-39361088D01*
X38963432Y-39361088D02*
X38907794Y-39249811D01*
X38907794Y-39249811D02*
X38907794Y-39138535D01*
X38907794Y-39138535D02*
X38963432Y-39027259D01*
X38963432Y-39027259D02*
X39074708Y-38971621D01*
X39074708Y-38971621D02*
X39352899Y-38971621D01*
X39352899Y-38971621D02*
X39464175Y-38915983D01*
X40020556Y-39416726D02*
X40020556Y-38637792D01*
X40020556Y-38860345D02*
X40076194Y-38749068D01*
X40076194Y-38749068D02*
X40131832Y-38693430D01*
X40131832Y-38693430D02*
X40243108Y-38637792D01*
X40243108Y-38637792D02*
X40354385Y-38637792D01*
X41244594Y-39416726D02*
X41244594Y-38248326D01*
X41244594Y-39361088D02*
X41133318Y-39416726D01*
X41133318Y-39416726D02*
X40910765Y-39416726D01*
X40910765Y-39416726D02*
X40799489Y-39361088D01*
X40799489Y-39361088D02*
X40743851Y-39305449D01*
X40743851Y-39305449D02*
X40688213Y-39194173D01*
X40688213Y-39194173D02*
X40688213Y-38860345D01*
X40688213Y-38860345D02*
X40743851Y-38749068D01*
X40743851Y-38749068D02*
X40799489Y-38693430D01*
X40799489Y-38693430D02*
X40910765Y-38637792D01*
X40910765Y-38637792D02*
X41133318Y-38637792D01*
X41133318Y-38637792D02*
X41244594Y-38693430D01*
X43358842Y-39305449D02*
X43303204Y-39361088D01*
X43303204Y-39361088D02*
X43136290Y-39416726D01*
X43136290Y-39416726D02*
X43025014Y-39416726D01*
X43025014Y-39416726D02*
X42858099Y-39361088D01*
X42858099Y-39361088D02*
X42746823Y-39249811D01*
X42746823Y-39249811D02*
X42691185Y-39138535D01*
X42691185Y-39138535D02*
X42635547Y-38915983D01*
X42635547Y-38915983D02*
X42635547Y-38749068D01*
X42635547Y-38749068D02*
X42691185Y-38526516D01*
X42691185Y-38526516D02*
X42746823Y-38415240D01*
X42746823Y-38415240D02*
X42858099Y-38303964D01*
X42858099Y-38303964D02*
X43025014Y-38248326D01*
X43025014Y-38248326D02*
X43136290Y-38248326D01*
X43136290Y-38248326D02*
X43303204Y-38303964D01*
X43303204Y-38303964D02*
X43358842Y-38359602D01*
X43803947Y-39361088D02*
X43970861Y-39416726D01*
X43970861Y-39416726D02*
X44249052Y-39416726D01*
X44249052Y-39416726D02*
X44360328Y-39361088D01*
X44360328Y-39361088D02*
X44415966Y-39305449D01*
X44415966Y-39305449D02*
X44471604Y-39194173D01*
X44471604Y-39194173D02*
X44471604Y-39082897D01*
X44471604Y-39082897D02*
X44415966Y-38971621D01*
X44415966Y-38971621D02*
X44360328Y-38915983D01*
X44360328Y-38915983D02*
X44249052Y-38860345D01*
X44249052Y-38860345D02*
X44026499Y-38804707D01*
X44026499Y-38804707D02*
X43915223Y-38749068D01*
X43915223Y-38749068D02*
X43859585Y-38693430D01*
X43859585Y-38693430D02*
X43803947Y-38582154D01*
X43803947Y-38582154D02*
X43803947Y-38470878D01*
X43803947Y-38470878D02*
X43859585Y-38359602D01*
X43859585Y-38359602D02*
X43915223Y-38303964D01*
X43915223Y-38303964D02*
X44026499Y-38248326D01*
X44026499Y-38248326D02*
X44304690Y-38248326D01*
X44304690Y-38248326D02*
X44471604Y-38303964D01*
X37795032Y-41956726D02*
X37795032Y-40788326D01*
X38351413Y-41956726D02*
X38351413Y-40788326D01*
X38351413Y-40788326D02*
X38740880Y-41622897D01*
X38740880Y-41622897D02*
X39130346Y-40788326D01*
X39130346Y-40788326D02*
X39130346Y-41956726D01*
X39909279Y-40788326D02*
X40020556Y-40788326D01*
X40020556Y-40788326D02*
X40131832Y-40843964D01*
X40131832Y-40843964D02*
X40187470Y-40899602D01*
X40187470Y-40899602D02*
X40243108Y-41010878D01*
X40243108Y-41010878D02*
X40298746Y-41233430D01*
X40298746Y-41233430D02*
X40298746Y-41511621D01*
X40298746Y-41511621D02*
X40243108Y-41734173D01*
X40243108Y-41734173D02*
X40187470Y-41845449D01*
X40187470Y-41845449D02*
X40131832Y-41901088D01*
X40131832Y-41901088D02*
X40020556Y-41956726D01*
X40020556Y-41956726D02*
X39909279Y-41956726D01*
X39909279Y-41956726D02*
X39798003Y-41901088D01*
X39798003Y-41901088D02*
X39742365Y-41845449D01*
X39742365Y-41845449D02*
X39686727Y-41734173D01*
X39686727Y-41734173D02*
X39631089Y-41511621D01*
X39631089Y-41511621D02*
X39631089Y-41233430D01*
X39631089Y-41233430D02*
X39686727Y-41010878D01*
X39686727Y-41010878D02*
X39742365Y-40899602D01*
X39742365Y-40899602D02*
X39798003Y-40843964D01*
X39798003Y-40843964D02*
X39909279Y-40788326D01*
X37795032Y-44496726D02*
X37795032Y-43328326D01*
X38351413Y-44496726D02*
X38351413Y-43328326D01*
X38351413Y-43328326D02*
X38740880Y-44162897D01*
X38740880Y-44162897D02*
X39130346Y-43328326D01*
X39130346Y-43328326D02*
X39130346Y-44496726D01*
X40298746Y-44496726D02*
X39631089Y-44496726D01*
X39964917Y-44496726D02*
X39964917Y-43328326D01*
X39964917Y-43328326D02*
X39853641Y-43495240D01*
X39853641Y-43495240D02*
X39742365Y-43606516D01*
X39742365Y-43606516D02*
X39631089Y-43662154D01*
X37795032Y-47036726D02*
X37795032Y-45868326D01*
X38351413Y-47036726D02*
X38351413Y-45868326D01*
X38351413Y-45868326D02*
X38740880Y-46702897D01*
X38740880Y-46702897D02*
X39130346Y-45868326D01*
X39130346Y-45868326D02*
X39130346Y-47036726D01*
X39631089Y-45979602D02*
X39686727Y-45923964D01*
X39686727Y-45923964D02*
X39798003Y-45868326D01*
X39798003Y-45868326D02*
X40076194Y-45868326D01*
X40076194Y-45868326D02*
X40187470Y-45923964D01*
X40187470Y-45923964D02*
X40243108Y-45979602D01*
X40243108Y-45979602D02*
X40298746Y-46090878D01*
X40298746Y-46090878D02*
X40298746Y-46202154D01*
X40298746Y-46202154D02*
X40243108Y-46369068D01*
X40243108Y-46369068D02*
X39575451Y-47036726D01*
X39575451Y-47036726D02*
X40298746Y-47036726D01*
X37795032Y-49576726D02*
X37795032Y-48408326D01*
X38351413Y-49576726D02*
X38351413Y-48408326D01*
X38351413Y-48408326D02*
X38740880Y-49242897D01*
X38740880Y-49242897D02*
X39130346Y-48408326D01*
X39130346Y-48408326D02*
X39130346Y-49576726D01*
X39575451Y-48408326D02*
X40298746Y-48408326D01*
X40298746Y-48408326D02*
X39909279Y-48853430D01*
X39909279Y-48853430D02*
X40076194Y-48853430D01*
X40076194Y-48853430D02*
X40187470Y-48909068D01*
X40187470Y-48909068D02*
X40243108Y-48964707D01*
X40243108Y-48964707D02*
X40298746Y-49075983D01*
X40298746Y-49075983D02*
X40298746Y-49354173D01*
X40298746Y-49354173D02*
X40243108Y-49465449D01*
X40243108Y-49465449D02*
X40187470Y-49521088D01*
X40187470Y-49521088D02*
X40076194Y-49576726D01*
X40076194Y-49576726D02*
X39742365Y-49576726D01*
X39742365Y-49576726D02*
X39631089Y-49521088D01*
X39631089Y-49521088D02*
X39575451Y-49465449D01*
X37683756Y-50948326D02*
X38462689Y-52116726D01*
X38462689Y-50948326D02*
X37683756Y-52116726D01*
X38907794Y-51671621D02*
X39798004Y-51671621D01*
X38017584Y-54100345D02*
X38017584Y-54656726D01*
X37628118Y-53488326D02*
X38017584Y-54100345D01*
X38017584Y-54100345D02*
X38407051Y-53488326D01*
X38796518Y-54211621D02*
X39686728Y-54211621D01*
X37683756Y-56028326D02*
X38462689Y-57196726D01*
X38462689Y-56028326D02*
X37683756Y-57196726D01*
X38907794Y-56751621D02*
X39798004Y-56751621D01*
X39352899Y-57196726D02*
X39352899Y-56306516D01*
X38017584Y-59180345D02*
X38017584Y-59736726D01*
X37628118Y-58568326D02*
X38017584Y-59180345D01*
X38017584Y-59180345D02*
X38407051Y-58568326D01*
X38796518Y-59291621D02*
X39686728Y-59291621D01*
X39241623Y-59736726D02*
X39241623Y-58846516D01*
X38351413Y-62276726D02*
X37795032Y-62276726D01*
X37795032Y-62276726D02*
X37795032Y-61108326D01*
X38740880Y-62276726D02*
X38740880Y-61497792D01*
X38740880Y-61108326D02*
X38685242Y-61163964D01*
X38685242Y-61163964D02*
X38740880Y-61219602D01*
X38740880Y-61219602D02*
X38796518Y-61163964D01*
X38796518Y-61163964D02*
X38740880Y-61108326D01*
X38740880Y-61108326D02*
X38740880Y-61219602D01*
X39130347Y-61497792D02*
X39575451Y-61497792D01*
X39297261Y-61108326D02*
X39297261Y-62109811D01*
X39297261Y-62109811D02*
X39352899Y-62221088D01*
X39352899Y-62221088D02*
X39464175Y-62276726D01*
X39464175Y-62276726D02*
X39575451Y-62276726D01*
X40410023Y-62221088D02*
X40298747Y-62276726D01*
X40298747Y-62276726D02*
X40076194Y-62276726D01*
X40076194Y-62276726D02*
X39964918Y-62221088D01*
X39964918Y-62221088D02*
X39909280Y-62109811D01*
X39909280Y-62109811D02*
X39909280Y-61664707D01*
X39909280Y-61664707D02*
X39964918Y-61553430D01*
X39964918Y-61553430D02*
X40076194Y-61497792D01*
X40076194Y-61497792D02*
X40298747Y-61497792D01*
X40298747Y-61497792D02*
X40410023Y-61553430D01*
X40410023Y-61553430D02*
X40465661Y-61664707D01*
X40465661Y-61664707D02*
X40465661Y-61775983D01*
X40465661Y-61775983D02*
X39909280Y-61887259D01*
X38462689Y-64816726D02*
X38073222Y-64260345D01*
X37795032Y-64816726D02*
X37795032Y-63648326D01*
X37795032Y-63648326D02*
X38240137Y-63648326D01*
X38240137Y-63648326D02*
X38351413Y-63703964D01*
X38351413Y-63703964D02*
X38407051Y-63759602D01*
X38407051Y-63759602D02*
X38462689Y-63870878D01*
X38462689Y-63870878D02*
X38462689Y-64037792D01*
X38462689Y-64037792D02*
X38407051Y-64149068D01*
X38407051Y-64149068D02*
X38351413Y-64204707D01*
X38351413Y-64204707D02*
X38240137Y-64260345D01*
X38240137Y-64260345D02*
X37795032Y-64260345D01*
X38907794Y-64761088D02*
X39074708Y-64816726D01*
X39074708Y-64816726D02*
X39352899Y-64816726D01*
X39352899Y-64816726D02*
X39464175Y-64761088D01*
X39464175Y-64761088D02*
X39519813Y-64705449D01*
X39519813Y-64705449D02*
X39575451Y-64594173D01*
X39575451Y-64594173D02*
X39575451Y-64482897D01*
X39575451Y-64482897D02*
X39519813Y-64371621D01*
X39519813Y-64371621D02*
X39464175Y-64315983D01*
X39464175Y-64315983D02*
X39352899Y-64260345D01*
X39352899Y-64260345D02*
X39130346Y-64204707D01*
X39130346Y-64204707D02*
X39019070Y-64149068D01*
X39019070Y-64149068D02*
X38963432Y-64093430D01*
X38963432Y-64093430D02*
X38907794Y-63982154D01*
X38907794Y-63982154D02*
X38907794Y-63870878D01*
X38907794Y-63870878D02*
X38963432Y-63759602D01*
X38963432Y-63759602D02*
X39019070Y-63703964D01*
X39019070Y-63703964D02*
X39130346Y-63648326D01*
X39130346Y-63648326D02*
X39408537Y-63648326D01*
X39408537Y-63648326D02*
X39575451Y-63703964D01*
X39909280Y-63648326D02*
X40576937Y-63648326D01*
X40243108Y-64816726D02*
X40243108Y-63648326D01*
X37795032Y-67356726D02*
X37795032Y-66188326D01*
X37795032Y-66188326D02*
X38073222Y-66188326D01*
X38073222Y-66188326D02*
X38240137Y-66243964D01*
X38240137Y-66243964D02*
X38351413Y-66355240D01*
X38351413Y-66355240D02*
X38407051Y-66466516D01*
X38407051Y-66466516D02*
X38462689Y-66689068D01*
X38462689Y-66689068D02*
X38462689Y-66855983D01*
X38462689Y-66855983D02*
X38407051Y-67078535D01*
X38407051Y-67078535D02*
X38351413Y-67189811D01*
X38351413Y-67189811D02*
X38240137Y-67301088D01*
X38240137Y-67301088D02*
X38073222Y-67356726D01*
X38073222Y-67356726D02*
X37795032Y-67356726D01*
X39798003Y-66132688D02*
X38796518Y-67634916D01*
X40855127Y-67245449D02*
X40799489Y-67301088D01*
X40799489Y-67301088D02*
X40632575Y-67356726D01*
X40632575Y-67356726D02*
X40521299Y-67356726D01*
X40521299Y-67356726D02*
X40354384Y-67301088D01*
X40354384Y-67301088D02*
X40243108Y-67189811D01*
X40243108Y-67189811D02*
X40187470Y-67078535D01*
X40187470Y-67078535D02*
X40131832Y-66855983D01*
X40131832Y-66855983D02*
X40131832Y-66689068D01*
X40131832Y-66689068D02*
X40187470Y-66466516D01*
X40187470Y-66466516D02*
X40243108Y-66355240D01*
X40243108Y-66355240D02*
X40354384Y-66243964D01*
X40354384Y-66243964D02*
X40521299Y-66188326D01*
X40521299Y-66188326D02*
X40632575Y-66188326D01*
X40632575Y-66188326D02*
X40799489Y-66243964D01*
X40799489Y-66243964D02*
X40855127Y-66299602D01*
X38462689Y-69785449D02*
X38407051Y-69841088D01*
X38407051Y-69841088D02*
X38240137Y-69896726D01*
X38240137Y-69896726D02*
X38128861Y-69896726D01*
X38128861Y-69896726D02*
X37961946Y-69841088D01*
X37961946Y-69841088D02*
X37850670Y-69729811D01*
X37850670Y-69729811D02*
X37795032Y-69618535D01*
X37795032Y-69618535D02*
X37739394Y-69395983D01*
X37739394Y-69395983D02*
X37739394Y-69229068D01*
X37739394Y-69229068D02*
X37795032Y-69006516D01*
X37795032Y-69006516D02*
X37850670Y-68895240D01*
X37850670Y-68895240D02*
X37961946Y-68783964D01*
X37961946Y-68783964D02*
X38128861Y-68728326D01*
X38128861Y-68728326D02*
X38240137Y-68728326D01*
X38240137Y-68728326D02*
X38407051Y-68783964D01*
X38407051Y-68783964D02*
X38462689Y-68839602D01*
X38907794Y-69841088D02*
X39074708Y-69896726D01*
X39074708Y-69896726D02*
X39352899Y-69896726D01*
X39352899Y-69896726D02*
X39464175Y-69841088D01*
X39464175Y-69841088D02*
X39519813Y-69785449D01*
X39519813Y-69785449D02*
X39575451Y-69674173D01*
X39575451Y-69674173D02*
X39575451Y-69562897D01*
X39575451Y-69562897D02*
X39519813Y-69451621D01*
X39519813Y-69451621D02*
X39464175Y-69395983D01*
X39464175Y-69395983D02*
X39352899Y-69340345D01*
X39352899Y-69340345D02*
X39130346Y-69284707D01*
X39130346Y-69284707D02*
X39019070Y-69229068D01*
X39019070Y-69229068D02*
X38963432Y-69173430D01*
X38963432Y-69173430D02*
X38907794Y-69062154D01*
X38907794Y-69062154D02*
X38907794Y-68950878D01*
X38907794Y-68950878D02*
X38963432Y-68839602D01*
X38963432Y-68839602D02*
X39019070Y-68783964D01*
X39019070Y-68783964D02*
X39130346Y-68728326D01*
X39130346Y-68728326D02*
X39408537Y-68728326D01*
X39408537Y-68728326D02*
X39575451Y-68783964D01*
X37795032Y-72436726D02*
X37795032Y-71268326D01*
X37795032Y-71268326D02*
X38184499Y-72102897D01*
X38184499Y-72102897D02*
X38573965Y-71268326D01*
X38573965Y-71268326D02*
X38573965Y-72436726D01*
X39352898Y-71268326D02*
X39575451Y-71268326D01*
X39575451Y-71268326D02*
X39686727Y-71323964D01*
X39686727Y-71323964D02*
X39798003Y-71435240D01*
X39798003Y-71435240D02*
X39853641Y-71657792D01*
X39853641Y-71657792D02*
X39853641Y-72047259D01*
X39853641Y-72047259D02*
X39798003Y-72269811D01*
X39798003Y-72269811D02*
X39686727Y-72381088D01*
X39686727Y-72381088D02*
X39575451Y-72436726D01*
X39575451Y-72436726D02*
X39352898Y-72436726D01*
X39352898Y-72436726D02*
X39241622Y-72381088D01*
X39241622Y-72381088D02*
X39130346Y-72269811D01*
X39130346Y-72269811D02*
X39074708Y-72047259D01*
X39074708Y-72047259D02*
X39074708Y-71657792D01*
X39074708Y-71657792D02*
X39130346Y-71435240D01*
X39130346Y-71435240D02*
X39241622Y-71323964D01*
X39241622Y-71323964D02*
X39352898Y-71268326D01*
X40298746Y-72381088D02*
X40465660Y-72436726D01*
X40465660Y-72436726D02*
X40743851Y-72436726D01*
X40743851Y-72436726D02*
X40855127Y-72381088D01*
X40855127Y-72381088D02*
X40910765Y-72325449D01*
X40910765Y-72325449D02*
X40966403Y-72214173D01*
X40966403Y-72214173D02*
X40966403Y-72102897D01*
X40966403Y-72102897D02*
X40910765Y-71991621D01*
X40910765Y-71991621D02*
X40855127Y-71935983D01*
X40855127Y-71935983D02*
X40743851Y-71880345D01*
X40743851Y-71880345D02*
X40521298Y-71824707D01*
X40521298Y-71824707D02*
X40410022Y-71769068D01*
X40410022Y-71769068D02*
X40354384Y-71713430D01*
X40354384Y-71713430D02*
X40298746Y-71602154D01*
X40298746Y-71602154D02*
X40298746Y-71490878D01*
X40298746Y-71490878D02*
X40354384Y-71379602D01*
X40354384Y-71379602D02*
X40410022Y-71323964D01*
X40410022Y-71323964D02*
X40521298Y-71268326D01*
X40521298Y-71268326D02*
X40799489Y-71268326D01*
X40799489Y-71268326D02*
X40966403Y-71323964D01*
X41467146Y-72436726D02*
X41467146Y-71268326D01*
X37795032Y-74976726D02*
X37795032Y-73808326D01*
X37795032Y-73808326D02*
X38184499Y-74642897D01*
X38184499Y-74642897D02*
X38573965Y-73808326D01*
X38573965Y-73808326D02*
X38573965Y-74976726D01*
X39130346Y-74976726D02*
X39130346Y-73808326D01*
X39631089Y-74921088D02*
X39798003Y-74976726D01*
X39798003Y-74976726D02*
X40076194Y-74976726D01*
X40076194Y-74976726D02*
X40187470Y-74921088D01*
X40187470Y-74921088D02*
X40243108Y-74865449D01*
X40243108Y-74865449D02*
X40298746Y-74754173D01*
X40298746Y-74754173D02*
X40298746Y-74642897D01*
X40298746Y-74642897D02*
X40243108Y-74531621D01*
X40243108Y-74531621D02*
X40187470Y-74475983D01*
X40187470Y-74475983D02*
X40076194Y-74420345D01*
X40076194Y-74420345D02*
X39853641Y-74364707D01*
X39853641Y-74364707D02*
X39742365Y-74309068D01*
X39742365Y-74309068D02*
X39686727Y-74253430D01*
X39686727Y-74253430D02*
X39631089Y-74142154D01*
X39631089Y-74142154D02*
X39631089Y-74030878D01*
X39631089Y-74030878D02*
X39686727Y-73919602D01*
X39686727Y-73919602D02*
X39742365Y-73863964D01*
X39742365Y-73863964D02*
X39853641Y-73808326D01*
X39853641Y-73808326D02*
X40131832Y-73808326D01*
X40131832Y-73808326D02*
X40298746Y-73863964D01*
X41022041Y-73808326D02*
X41244594Y-73808326D01*
X41244594Y-73808326D02*
X41355870Y-73863964D01*
X41355870Y-73863964D02*
X41467146Y-73975240D01*
X41467146Y-73975240D02*
X41522784Y-74197792D01*
X41522784Y-74197792D02*
X41522784Y-74587259D01*
X41522784Y-74587259D02*
X41467146Y-74809811D01*
X41467146Y-74809811D02*
X41355870Y-74921088D01*
X41355870Y-74921088D02*
X41244594Y-74976726D01*
X41244594Y-74976726D02*
X41022041Y-74976726D01*
X41022041Y-74976726D02*
X40910765Y-74921088D01*
X40910765Y-74921088D02*
X40799489Y-74809811D01*
X40799489Y-74809811D02*
X40743851Y-74587259D01*
X40743851Y-74587259D02*
X40743851Y-74197792D01*
X40743851Y-74197792D02*
X40799489Y-73975240D01*
X40799489Y-73975240D02*
X40910765Y-73863964D01*
X40910765Y-73863964D02*
X41022041Y-73808326D01*
X38462689Y-77405449D02*
X38407051Y-77461088D01*
X38407051Y-77461088D02*
X38240137Y-77516726D01*
X38240137Y-77516726D02*
X38128861Y-77516726D01*
X38128861Y-77516726D02*
X37961946Y-77461088D01*
X37961946Y-77461088D02*
X37850670Y-77349811D01*
X37850670Y-77349811D02*
X37795032Y-77238535D01*
X37795032Y-77238535D02*
X37739394Y-77015983D01*
X37739394Y-77015983D02*
X37739394Y-76849068D01*
X37739394Y-76849068D02*
X37795032Y-76626516D01*
X37795032Y-76626516D02*
X37850670Y-76515240D01*
X37850670Y-76515240D02*
X37961946Y-76403964D01*
X37961946Y-76403964D02*
X38128861Y-76348326D01*
X38128861Y-76348326D02*
X38240137Y-76348326D01*
X38240137Y-76348326D02*
X38407051Y-76403964D01*
X38407051Y-76403964D02*
X38462689Y-76459602D01*
X39519813Y-77516726D02*
X38963432Y-77516726D01*
X38963432Y-77516726D02*
X38963432Y-76348326D01*
X39909280Y-77516726D02*
X39909280Y-76348326D01*
X40576937Y-77516726D02*
X40076194Y-76849068D01*
X40576937Y-76348326D02*
X39909280Y-77015983D01*
X37683756Y-78888326D02*
X38407051Y-78888326D01*
X38407051Y-78888326D02*
X38017584Y-79333430D01*
X38017584Y-79333430D02*
X38184499Y-79333430D01*
X38184499Y-79333430D02*
X38295775Y-79389068D01*
X38295775Y-79389068D02*
X38351413Y-79444707D01*
X38351413Y-79444707D02*
X38407051Y-79555983D01*
X38407051Y-79555983D02*
X38407051Y-79834173D01*
X38407051Y-79834173D02*
X38351413Y-79945449D01*
X38351413Y-79945449D02*
X38295775Y-80001088D01*
X38295775Y-80001088D02*
X38184499Y-80056726D01*
X38184499Y-80056726D02*
X37850670Y-80056726D01*
X37850670Y-80056726D02*
X37739394Y-80001088D01*
X37739394Y-80001088D02*
X37683756Y-79945449D01*
X38907794Y-79945449D02*
X38963432Y-80001088D01*
X38963432Y-80001088D02*
X38907794Y-80056726D01*
X38907794Y-80056726D02*
X38852156Y-80001088D01*
X38852156Y-80001088D02*
X38907794Y-79945449D01*
X38907794Y-79945449D02*
X38907794Y-80056726D01*
X39352899Y-78888326D02*
X40076194Y-78888326D01*
X40076194Y-78888326D02*
X39686727Y-79333430D01*
X39686727Y-79333430D02*
X39853642Y-79333430D01*
X39853642Y-79333430D02*
X39964918Y-79389068D01*
X39964918Y-79389068D02*
X40020556Y-79444707D01*
X40020556Y-79444707D02*
X40076194Y-79555983D01*
X40076194Y-79555983D02*
X40076194Y-79834173D01*
X40076194Y-79834173D02*
X40020556Y-79945449D01*
X40020556Y-79945449D02*
X39964918Y-80001088D01*
X39964918Y-80001088D02*
X39853642Y-80056726D01*
X39853642Y-80056726D02*
X39519813Y-80056726D01*
X39519813Y-80056726D02*
X39408537Y-80001088D01*
X39408537Y-80001088D02*
X39352899Y-79945449D01*
X40410023Y-78888326D02*
X40799489Y-80056726D01*
X40799489Y-80056726D02*
X41188956Y-78888326D01*
X42635547Y-80056726D02*
X42524271Y-80001088D01*
X42524271Y-80001088D02*
X42468633Y-79945449D01*
X42468633Y-79945449D02*
X42412995Y-79834173D01*
X42412995Y-79834173D02*
X42412995Y-79500345D01*
X42412995Y-79500345D02*
X42468633Y-79389068D01*
X42468633Y-79389068D02*
X42524271Y-79333430D01*
X42524271Y-79333430D02*
X42635547Y-79277792D01*
X42635547Y-79277792D02*
X42802462Y-79277792D01*
X42802462Y-79277792D02*
X42913738Y-79333430D01*
X42913738Y-79333430D02*
X42969376Y-79389068D01*
X42969376Y-79389068D02*
X43025014Y-79500345D01*
X43025014Y-79500345D02*
X43025014Y-79834173D01*
X43025014Y-79834173D02*
X42969376Y-79945449D01*
X42969376Y-79945449D02*
X42913738Y-80001088D01*
X42913738Y-80001088D02*
X42802462Y-80056726D01*
X42802462Y-80056726D02*
X42635547Y-80056726D01*
X44026500Y-79277792D02*
X44026500Y-80056726D01*
X43525757Y-79277792D02*
X43525757Y-79889811D01*
X43525757Y-79889811D02*
X43581395Y-80001088D01*
X43581395Y-80001088D02*
X43692671Y-80056726D01*
X43692671Y-80056726D02*
X43859586Y-80056726D01*
X43859586Y-80056726D02*
X43970862Y-80001088D01*
X43970862Y-80001088D02*
X44026500Y-79945449D01*
X44415967Y-79277792D02*
X44861071Y-79277792D01*
X44582881Y-78888326D02*
X44582881Y-79889811D01*
X44582881Y-79889811D02*
X44638519Y-80001088D01*
X44638519Y-80001088D02*
X44749795Y-80056726D01*
X44749795Y-80056726D02*
X44861071Y-80056726D01*
X37683756Y-81428326D02*
X38407051Y-81428326D01*
X38407051Y-81428326D02*
X38017584Y-81873430D01*
X38017584Y-81873430D02*
X38184499Y-81873430D01*
X38184499Y-81873430D02*
X38295775Y-81929068D01*
X38295775Y-81929068D02*
X38351413Y-81984707D01*
X38351413Y-81984707D02*
X38407051Y-82095983D01*
X38407051Y-82095983D02*
X38407051Y-82374173D01*
X38407051Y-82374173D02*
X38351413Y-82485449D01*
X38351413Y-82485449D02*
X38295775Y-82541088D01*
X38295775Y-82541088D02*
X38184499Y-82596726D01*
X38184499Y-82596726D02*
X37850670Y-82596726D01*
X37850670Y-82596726D02*
X37739394Y-82541088D01*
X37739394Y-82541088D02*
X37683756Y-82485449D01*
X38907794Y-82151621D02*
X39798004Y-82151621D01*
X40910765Y-81428326D02*
X40354384Y-81428326D01*
X40354384Y-81428326D02*
X40298746Y-81984707D01*
X40298746Y-81984707D02*
X40354384Y-81929068D01*
X40354384Y-81929068D02*
X40465660Y-81873430D01*
X40465660Y-81873430D02*
X40743851Y-81873430D01*
X40743851Y-81873430D02*
X40855127Y-81929068D01*
X40855127Y-81929068D02*
X40910765Y-81984707D01*
X40910765Y-81984707D02*
X40966403Y-82095983D01*
X40966403Y-82095983D02*
X40966403Y-82374173D01*
X40966403Y-82374173D02*
X40910765Y-82485449D01*
X40910765Y-82485449D02*
X40855127Y-82541088D01*
X40855127Y-82541088D02*
X40743851Y-82596726D01*
X40743851Y-82596726D02*
X40465660Y-82596726D01*
X40465660Y-82596726D02*
X40354384Y-82541088D01*
X40354384Y-82541088D02*
X40298746Y-82485449D01*
X41300232Y-81428326D02*
X41689698Y-82596726D01*
X41689698Y-82596726D02*
X42079165Y-81428326D01*
X38407051Y-84023964D02*
X38295775Y-83968326D01*
X38295775Y-83968326D02*
X38128861Y-83968326D01*
X38128861Y-83968326D02*
X37961946Y-84023964D01*
X37961946Y-84023964D02*
X37850670Y-84135240D01*
X37850670Y-84135240D02*
X37795032Y-84246516D01*
X37795032Y-84246516D02*
X37739394Y-84469068D01*
X37739394Y-84469068D02*
X37739394Y-84635983D01*
X37739394Y-84635983D02*
X37795032Y-84858535D01*
X37795032Y-84858535D02*
X37850670Y-84969811D01*
X37850670Y-84969811D02*
X37961946Y-85081088D01*
X37961946Y-85081088D02*
X38128861Y-85136726D01*
X38128861Y-85136726D02*
X38240137Y-85136726D01*
X38240137Y-85136726D02*
X38407051Y-85081088D01*
X38407051Y-85081088D02*
X38462689Y-85025449D01*
X38462689Y-85025449D02*
X38462689Y-84635983D01*
X38462689Y-84635983D02*
X38240137Y-84635983D01*
X38963432Y-85136726D02*
X38963432Y-83968326D01*
X38963432Y-83968326D02*
X39631089Y-85136726D01*
X39631089Y-85136726D02*
X39631089Y-83968326D01*
X40187470Y-85136726D02*
X40187470Y-83968326D01*
X40187470Y-83968326D02*
X40465660Y-83968326D01*
X40465660Y-83968326D02*
X40632575Y-84023964D01*
X40632575Y-84023964D02*
X40743851Y-84135240D01*
X40743851Y-84135240D02*
X40799489Y-84246516D01*
X40799489Y-84246516D02*
X40855127Y-84469068D01*
X40855127Y-84469068D02*
X40855127Y-84635983D01*
X40855127Y-84635983D02*
X40799489Y-84858535D01*
X40799489Y-84858535D02*
X40743851Y-84969811D01*
X40743851Y-84969811D02*
X40632575Y-85081088D01*
X40632575Y-85081088D02*
X40465660Y-85136726D01*
X40465660Y-85136726D02*
X40187470Y-85136726D01*
D13*
X131304819Y-115238094D02*
X130304819Y-115238094D01*
X130304819Y-115238094D02*
X130304819Y-114999999D01*
X130304819Y-114999999D02*
X130352438Y-114857142D01*
X130352438Y-114857142D02*
X130447676Y-114761904D01*
X130447676Y-114761904D02*
X130542914Y-114714285D01*
X130542914Y-114714285D02*
X130733390Y-114666666D01*
X130733390Y-114666666D02*
X130876247Y-114666666D01*
X130876247Y-114666666D02*
X131066723Y-114714285D01*
X131066723Y-114714285D02*
X131161961Y-114761904D01*
X131161961Y-114761904D02*
X131257200Y-114857142D01*
X131257200Y-114857142D02*
X131304819Y-114999999D01*
X131304819Y-114999999D02*
X131304819Y-115238094D01*
X130400057Y-114285713D02*
X130352438Y-114238094D01*
X130352438Y-114238094D02*
X130304819Y-114142856D01*
X130304819Y-114142856D02*
X130304819Y-113904761D01*
X130304819Y-113904761D02*
X130352438Y-113809523D01*
X130352438Y-113809523D02*
X130400057Y-113761904D01*
X130400057Y-113761904D02*
X130495295Y-113714285D01*
X130495295Y-113714285D02*
X130590533Y-113714285D01*
X130590533Y-113714285D02*
X130733390Y-113761904D01*
X130733390Y-113761904D02*
X131304819Y-114333332D01*
X131304819Y-114333332D02*
X131304819Y-113714285D01*
X51154761Y-91054819D02*
X50821428Y-90578628D01*
X50583333Y-91054819D02*
X50583333Y-90054819D01*
X50583333Y-90054819D02*
X50964285Y-90054819D01*
X50964285Y-90054819D02*
X51059523Y-90102438D01*
X51059523Y-90102438D02*
X51107142Y-90150057D01*
X51107142Y-90150057D02*
X51154761Y-90245295D01*
X51154761Y-90245295D02*
X51154761Y-90388152D01*
X51154761Y-90388152D02*
X51107142Y-90483390D01*
X51107142Y-90483390D02*
X51059523Y-90531009D01*
X51059523Y-90531009D02*
X50964285Y-90578628D01*
X50964285Y-90578628D02*
X50583333Y-90578628D01*
X51440476Y-90054819D02*
X51773809Y-91054819D01*
X51773809Y-91054819D02*
X52107142Y-90054819D01*
X52392857Y-90150057D02*
X52440476Y-90102438D01*
X52440476Y-90102438D02*
X52535714Y-90054819D01*
X52535714Y-90054819D02*
X52773809Y-90054819D01*
X52773809Y-90054819D02*
X52869047Y-90102438D01*
X52869047Y-90102438D02*
X52916666Y-90150057D01*
X52916666Y-90150057D02*
X52964285Y-90245295D01*
X52964285Y-90245295D02*
X52964285Y-90340533D01*
X52964285Y-90340533D02*
X52916666Y-90483390D01*
X52916666Y-90483390D02*
X52345238Y-91054819D01*
X52345238Y-91054819D02*
X52964285Y-91054819D01*
%TO.C,SW2*%
D15*
X60250000Y-113000000D02*
X60250000Y-114500000D01*
X61500000Y-117000000D02*
X66000000Y-117000000D01*
X66000000Y-110500000D02*
X61500000Y-110500000D01*
X67250000Y-114500000D02*
X67250000Y-113000000D01*
%TO.C,R3*%
X131265000Y-102227064D02*
X131265000Y-101772936D01*
X132735000Y-102227064D02*
X132735000Y-101772936D01*
%TO.C,D3*%
X125562500Y-115460000D02*
X128247500Y-115460000D01*
X128247500Y-113540000D02*
X125562500Y-113540000D01*
X128247500Y-115460000D02*
X128247500Y-113540000D01*
%TO.C,RV1*%
X92240000Y-91840000D02*
X92620000Y-91840000D01*
X92240000Y-95560000D02*
X92240000Y-91840000D01*
X93520000Y-95560000D02*
X92240000Y-95560000D01*
X94380000Y-91840000D02*
X95120000Y-91840000D01*
X96880000Y-91840000D02*
X97260000Y-91840000D01*
X97260000Y-91840000D02*
X97260000Y-95560000D01*
X97260000Y-95560000D02*
X95980000Y-95560000D01*
%TO.C,SW1*%
X72750000Y-113000000D02*
X72750000Y-114500000D01*
X74000000Y-117000000D02*
X78500000Y-117000000D01*
X78500000Y-110500000D02*
X74000000Y-110500000D01*
X79750000Y-114500000D02*
X79750000Y-113000000D01*
%TO.C,R2*%
X118765000Y-94727064D02*
X118765000Y-94272936D01*
X120235000Y-94727064D02*
X120235000Y-94272936D01*
%TO.C,R1*%
X125265000Y-93814564D02*
X125265000Y-93360436D01*
X126735000Y-93814564D02*
X126735000Y-93360436D01*
%TO.C,D1*%
X118500000Y-115460000D02*
X121185000Y-115460000D01*
X121185000Y-113540000D02*
X118500000Y-113540000D01*
X121185000Y-115460000D02*
X121185000Y-113540000D01*
%TO.C,D8*%
D10*
X33210000Y-31623000D02*
X33210000Y-89027000D01*
X38290000Y-34925000D02*
X38290000Y-31623000D01*
X38290000Y-85725000D02*
X109410000Y-85725000D01*
X38290000Y-89027000D02*
X38290000Y-85725000D01*
X109410000Y-31623000D02*
X109410000Y-34925000D01*
X109410000Y-34925000D02*
X38290000Y-34925000D01*
X114490000Y-89027000D02*
X114490000Y-31623000D01*
X33210000Y-31623000D02*
G75*
G02*
X35750000Y-29083000I2540001J-1D01*
G01*
X35750000Y-29083000D02*
G75*
G02*
X38290000Y-31623000I-1J-2540001D01*
G01*
X35750000Y-91567000D02*
G75*
G02*
X33210000Y-89027000I0J2540000D01*
G01*
X38290000Y-89027000D02*
G75*
G02*
X35750000Y-91567000I-2540000J0D01*
G01*
X109410000Y-31623000D02*
G75*
G02*
X111950000Y-29083000I2540001J-1D01*
G01*
X111950000Y-29083000D02*
G75*
G02*
X114490000Y-31623000I-1J-2540001D01*
G01*
%TO.C,D2*%
D15*
X131540000Y-113500000D02*
X131540000Y-116185000D01*
X131540000Y-116185000D02*
X133460000Y-116185000D01*
X133460000Y-116185000D02*
X133460000Y-113500000D01*
%TO.C,RV2*%
X49240000Y-92240000D02*
X49620000Y-92240000D01*
X49240000Y-95960000D02*
X49240000Y-92240000D01*
X50520000Y-95960000D02*
X49240000Y-95960000D01*
X51380000Y-92240000D02*
X52120000Y-92240000D01*
X53880000Y-92240000D02*
X54260000Y-92240000D01*
X54260000Y-92240000D02*
X54260000Y-95960000D01*
X54260000Y-95960000D02*
X52980000Y-95960000D01*
%TD*%
M02*
